
<svg width="328px" height="338px" viewBox="0 0 328 338" version="1.1" xmlns="http://www.w3.org/2000/svg" xmlns:xlink="http://www.w3.org/1999/xlink">
    <!-- Generator: Sketch 51.2 (57519) - http://www.bohemiancoding.com/sketch -->
    <desc>Created with Sketch.</desc>
    <defs>
        <linearGradient x1="50%" y1="0%" x2="50%" y2="100%" id="linearGradient-1">
            <stop stop-color="#9AEFFD" offset="0%"></stop>
            <stop stop-color="#61DAFB" offset="100%"></stop>
        </linearGradient>
    </defs>
    <g id="Page-1" stroke="none" stroke-width="1" fill="none" fill-rule="evenodd">
        <g id="Artboard-9" transform="translate(-35.000000, -22.000000)">
            <g id="icon---react---parcel" transform="translate(35.000000, 22.000000)">
                <g id="React-icon" transform="translate(0.000000, 32.000000)" fill="url(#linearGradient-1)" fill-rule="nonzero">
                    <path d="M328,146.033417 C328,124.3122 300.789238,103.727169 259.070526,90.9617762 C268.697921,48.455024 264.419079,14.636759 245.56543,3.80956741 C241.219731,1.2698558 236.138606,0.0668345159 230.589482,0.0668345159 L230.589482,14.9709316 C233.6649,14.9709316 236.138606,15.5724422 238.21117,16.708629 C247.30371,21.9217212 251.248267,41.7715724 248.17285,67.3023575 C247.437424,73.584802 246.233999,80.2014191 244.763147,86.9517052 C231.659193,83.7436484 217.351814,81.2707713 202.309009,79.666743 C193.283327,67.3023575 183.923359,56.0741588 174.496535,46.249485 C196.291887,25.9986267 216.750102,14.904097 230.656339,14.904097 L230.656339,0 C230.656339,0 230.656339,0 230.656339,0 C212.270689,0 188.202201,13.0995651 163.866286,35.8233005 C139.530371,13.2332341 115.461883,0.267338064 97.0762332,0.267338064 L97.0762332,15.1714351 C110.915614,15.1714351 131.440685,26.1991302 153.236038,46.3163195 C143.87607,56.1409934 134.516103,67.3023575 125.624134,79.666743 C110.514472,81.2707713 96.2070934,83.7436484 83.103139,87.0185397 C81.5654301,80.3350881 80.4288626,73.8521401 79.6265797,67.6365301 C76.4843049,42.105745 80.3620057,22.2558938 89.3876885,16.975967 C91.3933958,15.7729458 94.0008153,15.2382696 97.0762332,15.2382696 L97.0762332,0.33417258 C97.0762332,0.33417258 97.0762332,0.33417258 97.0762332,0.33417258 C91.4602528,0.33417258 86.3791276,1.53719387 81.9665715,4.07690547 C63.1797799,14.904097 58.9677945,48.6555276 68.6620465,91.0286107 C27.0770485,103.860838 0,124.379034 0,146.033417 C0,167.754635 27.2107623,188.339666 68.9294741,201.105058 C59.3020791,243.61181 63.5809213,277.430076 82.4345699,288.257267 C86.7802691,290.796979 91.8613942,292 97.4773746,292 C115.863025,292 139.931512,278.900435 164.267428,256.176699 C188.603343,278.766766 212.67183,291.732662 231.057481,291.732662 C236.673461,291.732662 241.754586,290.529641 246.167142,287.989929 C264.953934,277.162737 269.165919,243.411307 259.471667,201.038224 C300.922951,188.272831 328,167.6878 328,146.033417 Z M240.952303,101.454795 C238.478598,110.076448 235.40318,118.965438 231.92662,127.854429 C229.185487,122.507668 226.31064,117.160906 223.168365,111.814145 C220.092947,106.467384 216.816959,101.254292 213.54097,96.1748684 C223.034651,97.5783932 232.194048,99.3160906 240.952303,101.454795 Z M210.331839,172.633555 C205.117,181.656214 199.768447,190.211032 194.219323,198.16434 C184.257644,199.033188 174.16225,199.50103 164,199.50103 C153.904607,199.50103 143.809213,199.033188 133.914391,198.231174 C128.365267,190.277867 122.949857,181.789883 117.735018,172.834058 C112.653893,164.078737 108.040766,155.189746 103.828781,146.233921 C107.973909,137.278096 112.653893,128.322271 117.668161,119.566949 C122.883,110.544289 128.231553,101.989471 133.780677,94.0361639 C143.742356,93.1673152 153.83775,92.6994736 164,92.6994736 C174.095393,92.6994736 184.190787,93.1673152 194.085609,93.9693294 C199.634733,101.922637 205.050143,110.41062 210.264982,119.366445 C215.346107,128.121767 219.959234,137.010758 224.171219,145.966583 C219.959234,154.922408 215.346107,163.878233 210.331839,172.633555 Z M231.92662,163.945068 C235.536894,172.900893 238.612311,181.856718 241.152874,190.545205 C232.394619,192.683909 223.168365,194.488441 213.607827,195.891966 C216.883816,190.745708 220.159804,185.465782 223.235222,180.052186 C226.31064,174.705425 229.185487,169.291829 231.92662,163.945068 Z M164.133714,235.257496 C157.916021,228.841382 151.698329,221.690089 145.547493,213.870451 C151.564615,214.137789 157.71545,214.338293 163.933143,214.338293 C170.217693,214.338293 176.435385,214.204623 182.519364,213.870451 C176.502242,221.690089 170.28455,228.841382 164.133714,235.257496 Z M114.392173,195.891966 C104.898492,194.488441 95.739095,192.750744 86.9808398,190.612039 C89.4545455,181.990387 92.5299633,173.101396 96.0065226,164.212406 C98.7476559,169.559167 101.622503,174.905928 104.764778,180.252689 C107.907053,185.599451 111.116184,190.812543 114.392173,195.891966 Z M163.799429,56.8093385 C170.017122,63.225452 176.234815,70.3767453 182.38565,78.1963836 C176.368528,77.9290455 170.217693,77.728542 164,77.728542 C157.71545,77.728542 151.497758,77.862211 145.413779,78.1963836 C151.430901,70.3767453 157.648594,63.225452 163.799429,56.8093385 Z M114.325316,96.1748684 C111.049327,101.321126 107.773339,106.601053 104.697921,112.014649 C101.622503,117.36141 98.7476559,122.708171 96.0065226,128.054932 C92.3962495,119.099107 89.3208316,110.143282 86.7802691,101.454795 C95.5385243,99.3829252 104.764778,97.5783932 114.325316,96.1748684 Z M53.8198125,179.851682 C30.1524664,169.75967 14.842234,156.526436 14.842234,146.033417 C14.842234,135.540398 30.1524664,122.24033 53.8198125,112.215152 C59.5695067,109.742275 65.8540563,107.536736 72.3391765,105.464866 C76.1500204,118.564431 81.1642886,132.198672 87.3819812,146.167086 C81.2311455,160.068666 76.2837342,173.636072 72.5397472,186.668803 C65.9209132,184.596933 59.6363636,182.324559 53.8198125,179.851682 Z M89.78883,275.358206 C80.6962903,270.145113 76.7517326,250.295262 79.8271504,224.764477 C80.5625764,218.482033 81.7660008,211.865415 83.2368528,205.115129 C96.3408072,208.323186 110.648186,210.796063 125.690991,212.400092 C134.716673,224.764477 144.076641,235.992676 153.503465,245.81735 C131.708113,266.068208 111.249898,277.162737 97.3436608,277.162737 C94.3350999,277.095903 91.7945373,276.494392 89.78883,275.358206 Z M248.37342,224.430304 C251.515695,249.961089 247.637994,269.810941 238.612311,275.090867 C236.606604,276.293889 233.999185,276.828565 230.923767,276.828565 C217.084386,276.828565 196.559315,265.80087 174.763962,245.68368 C184.12393,235.859007 193.483897,224.697642 202.375866,212.333257 C217.485528,210.729229 231.792907,208.256352 244.896861,204.98146 C246.43457,211.731746 247.637994,218.214694 248.37342,224.430304 Z M274.113331,179.851682 C268.363636,182.324559 262.079087,184.530098 255.593967,186.601968 C251.783123,173.502403 246.768854,159.868162 240.551162,145.899748 C246.701998,131.998169 251.649409,118.430762 255.393396,105.398032 C262.01223,107.469902 268.296779,109.742275 274.180188,112.215152 C297.847534,122.307164 313.157766,135.540398 313.157766,146.033417 C313.090909,156.526436 297.780677,169.826505 274.113331,179.851682 Z" id="Shape"></path>
                </g>
                <g id="2016-09-15-01-14-24" transform="translate(7.000000, 0.000000)" fill="#47848F">
                    <path d="M110.444491,73.1977859 C112.896436,73.6443673 114.522106,75.9940869 114.075525,78.4460345 C113.628943,80.8979798 111.279224,82.5236494 108.827276,82.077068 C68.1465548,74.6677501 37.1097617,82.1506766 25.5897645,102.1039 C17.1046452,116.800556 19.6575246,137.310006 32.7771084,160.192876 C34.0167364,162.355005 33.2689022,165.112673 31.1067723,166.352299 C28.9446447,167.591927 26.1869768,166.844091 24.9473487,164.681963 C10.3831646,139.279456 7.42515117,115.515219 17.7735765,97.5912227 C31.6413261,73.5715755 66.436611,65.1824808 110.444491,73.1977859 Z M175.527291,32.3205626 C171.936281,39.2655393 164.687313,44.0126347 156.3296,44.0126347 C144.401106,44.0126347 134.731149,34.3426796 134.731149,22.4141836 C134.731149,10.4856884 144.401106,0.8157322 156.3296,0.8157322 C168.258096,0.8157322 177.928051,10.4856884 177.928051,22.4141836 C177.928051,22.7262212 177.921434,23.0367134 177.908333,23.3455274 C213.661098,41.8365033 238.504891,104.891446 238.504891,177.7394 C238.504891,207.70059 234.315998,236.452515 226.516624,261.376349 C225.772326,263.754891 223.240743,265.079701 220.862201,264.33538 C218.483656,263.591081 217.158849,261.059492 217.903164,258.68095 C225.422932,234.650648 229.479535,206.806633 229.479535,177.7394 C229.479535,109.145292 206.678231,50.1195014 175.527291,32.3205626 Z M20.8260263,235.416154 C21.3586342,235.376827 21.896614,235.356814 22.439268,235.356814 C34.367764,235.356814 44.0377191,245.02676 44.0377191,256.955257 C44.0377191,268.883753 34.367764,278.553721 22.439268,278.553721 C10.510773,278.553721 0.840816872,268.883753 0.840816872,256.955257 C0.840816872,248.834906 5.32210304,241.761221 11.946546,238.072324 C8.69323752,197.70494 51.1222992,143.593018 115.241957,106.573516 C141.875234,91.1967856 169.60713,80.282586 195.660904,74.7004512 C198.097881,74.1783186 200.496712,75.7306052 201.018845,78.167582 C201.540977,80.6045565 199.988691,83.0033899 197.551714,83.5255225 C172.44291,88.9051937 145.591029,99.4730521 119.754635,114.389701 C59.3702958,149.252617 19.4423915,199.500938 20.8260263,235.416154 Z M271.129866,267.631757 C269.335758,264.482801 268.310833,260.83872 268.310833,256.955257 C268.310833,245.02676 277.980801,235.356814 289.909298,235.356814 C301.837771,235.356814 311.50774,245.02676 311.50774,256.955257 C311.50774,268.883753 301.837771,278.553721 289.909298,278.553721 C285.208659,278.553721 280.858746,277.052076 277.313099,274.502325 C242.857583,294.772524 177.043662,284.433692 115.109612,248.67605 C88.7450508,233.454473 65.627242,215.113189 47.8329103,195.558536 C46.1555232,193.715211 46.2900416,190.861112 48.1333667,189.183722 C49.9766917,187.506335 52.830791,187.640854 54.5081804,189.484179 C71.6600692,208.332834 94.0457005,226.093212 119.622289,240.859867 C178.072349,274.606031 239.624277,284.648551 271.129869,267.631756 L271.129866,267.631757 Z M269.715878,190.068769 C268.105619,191.971025 265.258187,192.207744 263.355913,190.597497 C261.453661,188.987252 261.216949,186.139804 262.827185,184.237548 C289.459745,152.77534 298.432189,122.243236 286.93709,102.333131 C278.592788,87.8803737 260.04645,79.8579159 234.315682,79.5232851 C231.823623,79.4908751 229.829584,77.444378 229.862075,74.952306 C229.894499,72.4602339 231.940975,70.4662915 234.433056,70.4986926 C263.042688,70.8707651 284.570146,80.1827385 294.753273,97.8204531 C308.59246,121.790639 298.531174,156.027999 269.715878,190.068769 Z M88.8999417,269.605646 C88.059663,267.259279 89.2805815,264.675997 91.6269415,263.835714 C93.9733037,262.995453 96.5565837,264.216358 97.3968623,266.562725 C111.323042,305.449618 133.306821,328.551933 156.3296,328.551933 C172.888252,328.551933 188.986851,316.690766 202.092898,294.889276 C203.376978,292.753245 206.149525,292.062602 208.285551,293.346685 C210.421577,294.630767 211.112216,297.403311 209.828135,299.539342 C195.24477,323.798301 176.543214,337.577288 156.3296,337.577288 C128.613851,337.577288 103.96592,311.675286 88.8999417,269.605646 Z M302.482384,256.955257 C302.482384,250.011329 296.853225,244.38217 289.909298,244.38217 C282.96537,244.38217 277.336188,250.011329 277.336188,256.955257 C277.336188,263.899184 282.96537,269.528366 289.909298,269.528366 C296.853225,269.528366 302.482384,263.899184 302.482384,256.955257 Z M22.439268,269.528366 C29.383198,269.528366 35.0123639,263.899184 35.0123639,256.955257 C35.0123639,250.011329 29.383198,244.38217 22.439268,244.38217 C15.495339,244.38217 9.86617198,250.011329 9.86617198,256.955257 C9.86617198,263.899184 15.495339,269.528366 22.439268,269.528366 Z M156.3296,34.9872795 C163.27353,34.9872795 168.902696,29.3581136 168.902696,22.4141836 C168.902696,15.4702544 163.27353,9.84108736 156.3296,9.84108736 C149.385672,9.84108736 143.756504,15.4702544 143.756504,22.4141836 C143.756504,29.3581136 149.385672,34.9872795 156.3296,34.9872795 Z M159.628602,193.013566 C151.192499,194.836336 142.881241,189.47504 141.054904,181.038935 C139.235701,172.602829 144.59343,164.291571 153.029535,162.465234 C161.465641,160.642467 169.776899,166.003763 171.603236,174.439868 C173.426003,182.875971 168.064708,191.187229 159.628602,193.013566 Z" id="Combined-Shape"></path>
                </g>
            </g>
        </g>
    </g>
</svg>