
<svg width="360px" height="213px" viewBox="0 0 360 213" version="1.1" xmlns="http://www.w3.org/2000/svg" xmlns:xlink="http://www.w3.org/1999/xlink">
    <!-- Generator: Sketch 48.2 (47327) - http://www.bohemiancoding.com/sketch -->
    <desc>Created with Sketch.</desc>
    <defs>
        <rect id="path-1" x="0" y="0" width="360" height="213"></rect>
        <linearGradient x1="50%" y1="0%" x2="50%" y2="99.0373884%" id="linearGradient-3">
            <stop stop-color="#FFFFFF" stop-opacity="0" offset="22.6781728%"></stop>
            <stop stop-color="#FFFFFF" offset="50.9905134%"></stop>
            <stop stop-color="#FFFFFF" stop-opacity="0" offset="86.7904974%"></stop>
        </linearGradient>
        <linearGradient x1="50%" y1="0%" x2="50%" y2="63.9096647%" id="linearGradient-4">
            <stop stop-color="#FFFFFF" offset="0%"></stop>
            <stop stop-color="#FFFFFF" stop-opacity="0" offset="75.3985969%"></stop>
        </linearGradient>
        <path d="M0.0271955144,0 C4.71492292,0 9.30227842,2.06153583 13.9023327,5.91638223 C19.1456685,10.3102889 24.2478564,16.9019608 29.3143842,24.8157948 C35.5739856,34.5930549 41.7154308,46.288836 47.8620833,57.9946502 C54.0087359,69.7004643 60.1501811,81.3962454 66.4097825,91.1735055 C71.4763103,99.0873395 76.5784981,105.679011 81.821834,110.072918 C86.4218882,113.927765 91.0092437,115.9893 95.6969712,115.9893 C100.385125,115.9893 104.972846,113.927417 109.573266,110.07199 C114.81581,105.678373 119.917267,99.0877455 124.983064,91.1753034 C131.24303,81.3976373 137.384871,69.7011603 143.531889,57.9946502 C149.678877,46.2881401 155.820688,34.591721 162.080654,24.814055 C167.146482,16.9016129 172.247969,10.3109268 177.490513,5.91731015 C182.090933,2.0618838 186.678654,0 191.366777,0" id="path-5"></path>
        <filter x="-381.0%" y="-559.5%" width="820.2%" height="1288.0%" filterUnits="objectBoundingBox" id="filter-6">
            <feMorphology radius="9" operator="dilate" in="SourceAlpha" result="shadowSpreadOuter1"></feMorphology>
            <feOffset dx="-40" dy="40" in="shadowSpreadOuter1" result="shadowOffsetOuter1"></feOffset>
            <feMorphology radius="9" operator="erode" in="SourceAlpha" result="shadowInner"></feMorphology>
            <feOffset dx="-40" dy="40" in="shadowInner" result="shadowInner"></feOffset>
            <feComposite in="shadowOffsetOuter1" in2="shadowInner" operator="out" result="shadowOffsetOuter1"></feComposite>
            <feGaussianBlur stdDeviation="220" in="shadowOffsetOuter1" result="shadowBlurOuter1"></feGaussianBlur>
            <feColorMatrix values="0 0 0 0 0   0 0 0 0 0   0 0 0 0 0  0 0 0 0.5 0" type="matrix" in="shadowBlurOuter1"></feColorMatrix>
        </filter>
        <path d="M15.66925,106.510851 L7.35891667,92.6838063 L0.912583333,92.6838063 L0.912583333,106.510851 L0.05825,106.510851 L0.05825,79.0891486 L7.66958333,79.0891486 C8.67925505,79.0891486 9.70185593,79.1795205 10.7374167,79.3602671 C11.7729774,79.5410137 12.6984959,79.883136 13.514,80.3866444 C14.3295041,80.8901528 14.9961363,81.5808526 15.5139167,82.4587646 C16.031697,83.3366766 16.2905833,84.472781 16.2905833,85.8671119 C16.2905833,87.1581589 16.0446413,88.2297119 15.55275,89.081803 C15.0608587,89.9338941 14.4265872,90.6245939 13.6499167,91.1539232 C12.8732461,91.6832525 12.0124492,92.0641057 11.0675,92.2964942 C10.1225508,92.5288826 9.19703231,92.6450751 8.29091667,92.6450751 L16.6400833,106.510851 L15.66925,106.510851 Z M15.43625,85.8671119 C15.43625,84.6793485 15.2032523,83.6917123 14.73725,82.9041736 C14.2712477,82.1166349 13.6563927,81.4969416 12.8926667,81.0450751 C12.1289406,80.5932086 11.2487272,80.2769069 10.252,80.0961603 C9.25527279,79.9154137 8.23914407,79.8250417 7.20358333,79.8250417 L0.912583333,79.8250417 L0.912583333,91.9479132 L7.63075,91.9479132 C10.1678738,91.9479132 12.1030489,91.4185918 13.4363333,90.3599332 C14.7696178,89.3012746 15.43625,87.8036825 15.43625,85.8671119 Z M23.12525,106.510851 L23.12525,79.0891486 L39.1245833,79.0891486 L39.1245833,79.863773 L23.94075,79.863773 L23.94075,91.909182 L38.2314167,91.909182 L38.2314167,92.6838063 L23.94075,92.6838063 L23.94075,105.736227 L39.7459167,105.736227 L39.7459167,106.510851 L23.12525,106.510851 Z M157.702167,106.704508 L153.857667,106.704508 L153.857667,79.2828047 L157.702167,79.2828047 L157.702167,106.704508 Z M182.516667,82.6524207 L166.983333,103.29616 L182.749667,103.29616 L182.749667,106.704508 L162.323333,106.704508 L162.323333,103.334891 L177.817833,82.6524207 L162.634,82.6524207 L162.634,79.2828047 L182.516667,79.2828047 L182.516667,82.6524207 Z M202.088667,99.5005008 C202.088667,100.507518 201.933335,101.469333 201.622667,102.385977 C201.311998,103.30262 200.839531,104.115968 200.20525,104.826043 C199.570969,105.536119 198.755477,106.104171 197.75875,106.530217 C196.762023,106.956263 195.577618,107.169282 194.2055,107.169282 C192.445047,107.169282 190.885257,106.769064 189.526083,105.968614 C188.16691,105.168165 187.150781,104.109522 186.477667,102.792654 L187.293167,102.444073 C187.862725,103.631837 188.768827,104.574287 190.0115,105.271452 C191.254173,105.968618 192.652159,106.343016 194.2055,106.394658 C195.344617,106.420479 196.354273,106.252645 197.2345,105.891152 C198.114727,105.529659 198.852553,105.032613 199.448,104.4 C200.043447,103.767387 200.490026,103.025046 200.78775,102.172955 C201.085474,101.320864 201.234333,100.417144 201.234333,99.4617696 C201.234333,98.2740063 200.981919,97.2540944 200.477083,96.4020033 C199.972247,95.5499123 199.331504,94.8463022 198.554833,94.2911519 C197.778163,93.7360017 196.923838,93.3293279 195.991833,93.0711185 C195.059829,92.8129091 194.179615,92.6838063 193.351167,92.6838063 L192.496833,92.6838063 L192.496833,91.909182 L193.351167,91.909182 C194.179615,91.909182 195.001579,91.7865343 195.817083,91.5412354 C196.632587,91.2959364 197.370413,90.9150833 198.030583,90.3986644 C198.690753,89.8822456 199.227942,89.2238215 199.642167,88.4233723 C200.056391,87.6229231 200.2635,86.6546523 200.2635,85.5185309 C200.2635,84.6147979 200.108168,83.7949953 199.7975,83.0590985 C199.486832,82.3232017 199.059669,81.6970532 198.516,81.1806344 C197.972331,80.6642156 197.331587,80.263997 196.59375,79.9799666 C195.855913,79.6959363 195.059838,79.5539232 194.2055,79.5539232 C193.066383,79.5539232 191.979061,79.7992185 190.9435,80.2898164 C189.907939,80.7804143 189.092447,81.4775692 188.497,82.3813022 L187.798,81.9165275 C188.471114,80.9611527 189.3578,80.2059015 190.458083,79.6507513 C191.558367,79.095601 192.807493,78.8180301 194.2055,78.8180301 C195.189283,78.8180301 196.101857,78.9729534 196.94325,79.2828047 C197.784643,79.592656 198.509525,80.0380605 199.117917,80.6190317 C199.726309,81.2000029 200.205248,81.903613 200.55475,82.7298831 C200.904252,83.5561533 201.079,84.4856932 201.079,85.5185309 C201.079,86.2931591 200.968973,87.0484103 200.748917,87.7843072 C200.52886,88.520204 200.185836,89.1850833 199.719833,89.7789649 C199.253831,90.3728466 198.65192,90.8892577 197.914083,91.3282137 C197.176246,91.7671697 196.302505,92.0641061 195.292833,92.2190317 L195.292833,92.2964942 C196.457839,92.4772407 197.467496,92.7999977 198.321833,93.2647746 C199.176171,93.7295516 199.881636,94.2846935 200.43825,94.930217 C200.994864,95.5757406 201.409082,96.2922609 201.680917,97.0797997 C201.952751,97.8673384 202.088667,98.6742307 202.088667,99.5005008 Z M232.8835,92.9936561 C232.8835,95.3691827 232.495171,97.4154616 231.7185,99.1325543 C230.941829,100.849647 229.867451,102.269777 228.495333,103.392988 C227.123215,104.516199 225.511648,105.348912 223.660583,105.891152 C221.809519,106.433392 219.822566,106.704508 217.699667,106.704508 L209.894167,106.704508 L209.894167,79.2828047 L217.699667,79.2828047 C219.822566,79.2828047 221.809519,79.5474654 223.660583,80.0767947 C225.511648,80.606124 227.123215,81.4323817 228.495333,82.5555927 C229.867451,83.6788036 230.941829,85.1053892 231.7185,86.8353923 C232.495171,88.5653954 232.8835,90.6181295 232.8835,92.9936561 Z M210.787333,80.057429 L210.787333,105.929883 L217.5055,105.929883 C219.524843,105.929883 221.421186,105.678133 223.194583,105.174624 C224.967981,104.671116 226.501882,103.896499 227.796333,102.850751 C229.090784,101.805003 230.113385,100.468789 230.864167,98.8420701 C231.614948,97.2153508 231.990333,95.265899 231.990333,92.9936561 C231.990333,90.7214132 231.614948,88.7655063 230.864167,87.1258765 C230.113385,85.4862467 229.090784,84.1435778 227.796333,83.0978297 C226.501882,82.0520816 224.967981,81.2839201 223.194583,80.7933222 C221.421186,80.3027243 219.524843,80.057429 217.5055,80.057429 L210.787333,80.057429 Z" id="path-7"></path>
        <filter x="-1.7%" y="-14.1%" width="106.9%" height="156.4%" filterUnits="objectBoundingBox" id="filter-8">
            <feOffset dx="4" dy="4" in="SourceAlpha" result="shadowOffsetOuter1"></feOffset>
            <feGaussianBlur stdDeviation="2" in="shadowOffsetOuter1" result="shadowBlurOuter1"></feGaussianBlur>
            <feColorMatrix values="0 0 0 0 0   0 0 0 0 0   0 0 0 0 0  0 0 0 0.200973732 0" type="matrix" in="shadowBlurOuter1"></feColorMatrix>
        </filter>
    </defs>
    <g id="Site" stroke="none" stroke-width="1" fill="none" fill-rule="evenodd">
        <g id="Desktop-HD" transform="translate(-521.000000, -67.000000)">
            <g id="Reviz_3d" transform="translate(521.000000, 67.000000)">
                <mask id="mask-2" fill="white">
                    <use xlink:href="#path-1"></use>
                </mask>
                <g id="Rectangle"></g>
                <path d="M-8,-76 L367,299 M367,-76 L-8,299 M16.1699219,-76 L16.1699219,299 M108.455078,-76 L108.455078,299 M179.5,-76 L179.5,299 M250.544922,-76 L250.544922,299 M342.830078,-76 L342.830078,299 M-8,274.830078 L367,274.830078 M-8,182.544922 L367,182.544922 M-8,111.5 L367,111.5 M-8,40.4550781 L367,40.4550781 M-8,-51.8300781 L367,-51.8300781 M179.5,274.830078 C269.704711,274.830078 342.830078,201.704711 342.830078,111.5 C342.830078,21.2952887 269.704711,-51.8300781 179.5,-51.8300781 C89.2952887,-51.8300781 16.1699219,21.2952887 16.1699219,111.5 C16.1699219,201.704711 89.2952887,274.830078 179.5,274.830078 Z M179.5,211.841797 C234.917244,211.841797 279.841797,166.917244 279.841797,111.5 C279.841797,56.0827558 234.917244,11.1582031 179.5,11.1582031 C124.082756,11.1582031 79.1582031,56.0827558 79.1582031,111.5 C79.1582031,166.917244 124.082756,211.841797 179.5,211.841797 Z M179.5,182.544922 C218.737027,182.544922 250.544922,150.737027 250.544922,111.5 C250.544922,72.2629731 218.737027,40.4550781 179.5,40.4550781 C140.262973,40.4550781 108.455078,72.2629731 108.455078,111.5 C108.455078,150.737027 140.262973,182.544922 179.5,182.544922 Z" id="Grid" stroke="url(#linearGradient-3)" opacity="0.151211504" stroke-linecap="square" mask="url(#mask-2)"></path>
                <g id="Group-2" mask="url(#mask-2)">
                    <g transform="translate(199.000000, 188.000000) scale(-1, 1) translate(-199.000000, -188.000000) translate(-30.000000, 53.000000)" id="sine-curve">
                        <path d="M18.4364407,42.9606259 C21.0986551,47.8576369 23.7517385,52.909929 26.4048827,57.9623951 C32.5487706,69.6623943 38.6874842,81.3523661 44.9442939,91.124652 C50.0075113,99.0326355 55.1063707,105.619656 60.3462452,110.010771 C64.9442919,113.864053 69.5296768,115.92479 74.2154129,115.92479 C78.901149,115.92479 83.4865338,113.864053 88.0846109,110.010771 C93.3244855,105.619598 98.4233753,99.0325775 103.486623,91.1245361 C109.743402,81.3523081 115.882086,69.6623943 122.025943,57.9623951 C128.169831,46.2623958 134.308545,34.5724241 140.565324,24.8001961 C145.628541,16.8921547 150.727401,10.3051922 155.967275,5.91401909 C160.565352,2.06073703 165.150737,0 169.836504,0 C174.521844,0 179.106864,2.06038926 183.704576,5.9130917 C188.945242,10.3045546 194.044831,16.8925604 199.108779,24.8019929 C205.365193,34.5738152 211.503511,46.2630914 217.647034,57.9623951 C223.790557,69.6616988 229.928875,81.350975 236.185289,91.1227972 C241.249236,99.0322297 246.348826,105.620236 251.589492,110.011698 C256.187204,113.864401 260.772224,115.92479 265.457564,115.92479 C270.143331,115.92479 274.728715,113.864053 279.326793,110.010771 C284.566667,105.619598 289.665527,99.0326355 294.728744,91.1245941 C300.985523,81.3523661 307.124237,69.6623943 313.268125,57.9623951 C319.411982,46.2623958 325.550665,34.572482 331.807445,24.8002541 C336.870693,16.8922126 341.969582,10.3051922 347.209457,5.91401909 C351.807534,2.06073703 356.392919,0 361.078655,0 C365.764391,0 370.349776,2.06073703 374.947823,5.91401909 C380.187697,10.3051342 385.286556,16.8921547 390.349774,24.8001381 C396.606584,34.5724241 402.745297,46.2623958 408.889185,57.9623951 C411.542329,63.0148611 414.195413,68.0671533 416.857627,72.9641642 L457.916072,154.658217 L450.924573,269.854685 L279.326793,269.854685 L79.489054,251.312179 L26.4048827,181.648083 L0.0691972695,72.9641642 L18.4364407,42.9606259 Z" stroke="none" fill="url(#linearGradient-4)" fill-rule="evenodd" opacity="0.141304348"></path>
                        <path d="M18.4364407,42.9606259 C21.0986551,47.8576369 23.7517385,52.909929 26.4048827,57.9623951 C32.5487706,69.6623943 38.6874842,81.3523661 44.9442939,91.124652 C50.0075113,99.0326355 55.1063707,105.619656 60.3462452,110.010771 C64.9442919,113.864053 69.5296768,115.92479 74.2154129,115.92479 C78.901149,115.92479 83.4865338,113.864053 88.0846109,110.010771 C93.3244855,105.619598 98.4233753,99.0325775 103.486623,91.1245361 C109.743402,81.3523081 115.882086,69.6623943 122.025943,57.9623951 C128.169831,46.2623958 134.308545,34.5724241 140.565324,24.8001961 C145.628541,16.8921547 150.727401,10.3051922 155.967275,5.91401909 C160.565352,2.06073703 165.150737,0 169.836504,0 C174.521844,0 179.106864,2.06038926 183.704576,5.9130917 C188.945242,10.3045546 194.044831,16.8925604 199.108779,24.8019929 C205.365193,34.5738152 211.503511,46.2630914 217.647034,57.9623951 C223.790557,69.6616988 229.928875,81.350975 236.185289,91.1227972 C241.249236,99.0322297 246.348826,105.620236 251.589492,110.011698 C256.187204,113.864401 260.772224,115.92479 265.457564,115.92479 C270.143331,115.92479 274.728715,113.864053 279.326793,110.010771 C284.566667,105.619598 289.665527,99.0326355 294.728744,91.1245941 C300.985523,81.3523661 307.124237,69.6623943 313.268125,57.9623951 C319.411982,46.2623958 325.550665,34.572482 331.807445,24.8002541 C336.870693,16.8922126 341.969582,10.3051922 347.209457,5.91401909 C351.807534,2.06073703 356.392919,0 361.078655,0 C365.764391,0 370.349776,2.06073703 374.947823,5.91401909 C380.187697,10.3051342 385.286556,16.8921547 390.349774,24.8001381 C396.606584,34.5724241 402.745297,46.2623958 408.889185,57.9623951 C411.542329,63.0148611 414.195413,68.0671533 416.857627,72.9641642 L436.309219,115.92479" stroke="#FFFFFF" stroke-width="3" fill="none" opacity="0.7"></path>
                    </g>
                </g>
                <g id="Group-3" mask="url(#mask-2)">
                    <g transform="translate(64.000000, 53.000000)">
                        <g id="Group-2" stroke-width="1" fill-rule="evenodd" transform="translate(97.972500, 58.000000) scale(-1, 1) translate(-97.972500, -58.000000) translate(1.972500, 0.000000)" stroke-linecap="round" stroke-linejoin="bevel">
                            <g id="sine-curve">
                                <use fill="black" fill-opacity="1" filter="url(#filter-6)" xlink:href="#path-5"></use>
                                <use stroke="#FFFFFF" stroke-width="18" xlink:href="#path-5"></use>
                            </g>
                        </g>
                        <g id="Combined-Shape">
                            <use fill="black" fill-opacity="1" filter="url(#filter-8)" xlink:href="#path-7"></use>
                            <use fill="#FFFFFF" fill-rule="evenodd" xlink:href="#path-7"></use>
                        </g>
                    </g>
                </g>
            </g>
        </g>
    </g>
</svg>