<svg width="87px" height="70px" viewBox="0 0 87 70" version="1.1" xmlns="http://www.w3.org/2000/svg" xmlns:xlink="http://www.w3.org/1999/xlink">
    <!-- Generator: Sketch 47.1 (45422) - http://www.bohemiancoding.com/sketch -->
    <desc>Created with Sketch.</desc>
    <defs></defs>
    <g id="Page-1" stroke="none" stroke-width="1" fill="none" fill-rule="evenodd">
        <g id="Artboard-2" transform="translate(-481.000000, -552.000000)" fill-rule="nonzero" fill="#000000">
            <g id="Group-9" transform="translate(481.000000, 552.000000)">
                <path d="M85.3636364,0 C85.0782854,0 84.8270784,0.120793 84.6448864,0.3125 C84.4744524,0.491834 29.2698864,67.53125 29.2698864,67.53125 C29.2698864,67.53125 2.19708566,41.401433 1.95738636,41.21875 C1.78930476,41.090649 1.59128056,41 1.36363636,41 C0.811351664,41 0.363636364,41.447715 0.363636364,42 C0.363636364,42.267323 0.474012464,42.508088 0.644886364,42.6875 C0.742612364,42.790108 28.4734564,69.509535 28.6448864,69.6875 C28.8267924,69.87634 29.0807264,70 29.3636364,70 C29.6561674,70 29.9307724,69.887725 30.1136364,69.6875 C30.2751094,69.510693 86.1067134,1.686714 86.2073864,1.53125 C86.3086204,1.374918 86.3636364,1.200113 86.3636364,1 C86.3636364,0.447715 85.9159214,0 85.3636364,0 Z" id="Shape"></path>
            </g>
        </g>
    </g>
</svg>