
<svg width="55px" height="55px" viewBox="0 0 55 55" version="1.1" xmlns="http://www.w3.org/2000/svg" xmlns:xlink="http://www.w3.org/1999/xlink">
    <!-- Generator: Sketch 47.1 (45422) - http://www.bohemiancoding.com/sketch -->
    <desc>Created with Sketch.</desc>
    <defs></defs>
    <g id="Page-1" stroke="none" stroke-width="1" fill="none" fill-rule="evenodd">
        <g id="Icons" transform="translate(-101.000000, -272.000000)" fill-rule="nonzero" fill="#FFFFFF">
            <path d="M128.192888,272 C113.645357,272 101.808823,283.862226 101.364583,298.640625 C101.356625,298.923553 101.353785,299.20727 101.344828,299.5 C101.344828,299.853206 101.627866,300.139535 101.977011,300.139535 C102.326157,300.139535 102.609195,299.853206 102.609195,299.5 C102.614891,299.218774 102.619998,298.907638 102.628951,298.640625 C103.068785,284.544192 114.335007,273.27907 128.192888,273.27907 C138.802913,273.27907 147.977559,279.85223 151.860273,289.267442 L140.54023,289.267442 C140.206239,289.262645 139.908046,289.569069 139.908046,289.906977 C139.908046,290.244885 140.206239,290.55129 140.54023,290.546512 L153.183908,290.546512 C153.514909,290.546478 153.816059,290.241827 153.816092,289.906977 L153.816092,277.116279 C153.830386,276.746476 153.467817,276.410257 153.104885,276.456759 C152.794339,276.496123 152.539548,276.799905 152.551724,277.116279 L152.551724,287.668605 C148.229573,278.387461 138.895875,272 128.192888,272 Z M155.08046,298.860465 C154.731314,298.860465 154.448276,299.146794 154.448276,299.5 C154.440892,299.85319 154.425505,300.247265 154.414966,300.574181 C153.867191,314.569144 142.651394,325.72093 128.864583,325.72093 C118.252857,325.72093 109.078838,319.150211 105.197198,309.732558 L116.517241,309.732558 C116.851232,309.737355 117.149425,309.430931 117.149425,309.093023 C117.149425,308.755115 116.851232,308.44871 116.517241,308.453488 L103.873563,308.453488 C103.834166,308.449715 103.794424,308.449715 103.755029,308.453488 C103.465234,308.509428 103.236181,308.794616 103.241379,309.093023 L103.241379,321.883721 C103.236657,322.221596 103.539539,322.523256 103.873563,322.523256 C104.207587,322.523256 104.510471,322.221596 104.505747,321.883721 L104.505747,311.351381 C108.827898,320.632509 118.161595,327 128.864583,327 C143.366734,327 155.169008,315.21324 155.682599,300.49923 C155.692908,300.165322 155.702049,299.846242 155.712644,299.5 C155.712644,299.146794 155.429605,298.860465 155.08046,298.860465 Z" id="Shape"></path>
        </g>
    </g>
</svg>