
<svg width="83px" height="81px" viewBox="0 0 83 81" version="1.1" xmlns="http://www.w3.org/2000/svg" xmlns:xlink="http://www.w3.org/1999/xlink">
    <!-- Generator: Sketch 48.2 (47327) - http://www.bohemiancoding.com/sketch -->
    <desc>Created with Sketch.</desc>
    <defs></defs>
    <g id="Page-1" stroke="none" stroke-width="1" fill="none" fill-rule="evenodd">
        <g id="Icons" transform="translate(-44.000000, -413.000000)" fill="#FFFFFF" fill-rule="nonzero">
            <g id="github-logo" transform="translate(44.000000, 413.000000)">
                <path d="M77.4330538,20.6766382 C73.7220086,14.315819 68.6882129,9.27994966 62.3303416,5.56789406 C55.9715241,1.85564913 49.029591,0 41.4996215,0 C33.9705983,0 27.026394,1.85621713 20.6689013,5.56789406 C14.3104623,9.27976033 9.27685579,14.315819 5.56581066,20.6766382 C1.85533331,27.037268 0,33.9831249 0,41.5140197 C0,50.5603329 2.63830932,58.6950095 7.9162528,65.9201321 C13.1936285,73.1458227 20.0112166,78.1457188 28.3684494,80.9203886 C29.341255,81.1010119 30.0613961,80.9739697 30.5296297,80.5424806 C30.9980527,80.1104236 31.2319802,79.5693109 31.2319802,78.9214146 C31.2319802,78.8133057 31.2227064,77.840704 31.2047265,76.0024734 C31.1861789,74.1642429 31.1774728,72.5605955 31.1774728,71.1922886 L29.9345907,71.4073704 C29.1421516,71.5525886 28.1424708,71.6141217 26.9355484,71.5967031 C25.7291937,71.5798525 24.4768485,71.4533783 23.180216,71.2182271 C21.8830157,70.9851587 20.6764718,70.444614 19.559638,69.5977291 C18.443372,68.7508443 17.6509329,67.6423017 17.1825099,66.2738054 L16.6421675,65.02989 C16.2820023,64.2017491 15.714974,63.2817818 14.9403255,62.2733962 C14.165677,61.264064 13.3823225,60.5798158 12.5898834,60.2195158 L12.2115491,59.9485808 C11.9594524,59.7685255 11.7255248,59.551361 11.5091986,59.2993592 C11.2930616,59.0473575 11.1312428,58.7951664 11.0231743,58.5425967 C10.9149166,58.2898376 11.0046267,58.0825184 11.2932509,57.9198817 C11.5818751,57.7572449 12.1034806,57.6782932 12.8603385,57.6782932 L13.9406448,57.839794 C14.6611644,57.9842548 15.5523982,58.4157438 16.6154816,59.1369118 C17.6779973,59.8575118 18.5514404,60.7943297 19.2360003,61.9469868 C20.064967,63.4249173 21.0637014,64.5510678 22.2350426,65.3260063 C23.4054375,66.1009447 24.5854848,66.4877513 25.7740488,66.4877513 C26.9626128,66.4877513 27.9891688,66.397629 28.8540951,66.218331 C29.7180752,66.0380863 30.5286834,65.7671513 31.2855413,65.4070406 C31.6097468,62.9915349 32.4924637,61.1358858 33.9329352,59.8387679 C31.8798233,59.6229287 30.0339531,59.2978446 28.3943782,58.8655982 C26.7557497,58.4327838 25.0624245,57.7303597 23.3155382,56.7564326 C21.5677056,55.7838309 20.117771,54.576078 18.965356,53.1352567 C17.8127517,51.693678 16.8668213,49.801109 16.1288896,47.4592537 C15.3905793,45.1164517 15.0213296,42.4139177 15.0213296,39.3508944 C15.0213296,34.9896172 16.4445782,31.2783189 19.2905077,28.2149169 C17.9573477,24.9360544 18.0832068,21.2603507 19.6684635,17.1881844 C20.7131886,16.8634789 22.2624856,17.10715 24.3155975,17.917683 C26.3690878,18.7285947 27.8725835,19.4232561 28.8275985,19.999206 C29.7826135,20.5749665 30.5477989,21.0628767 31.1242903,21.4585819 C34.4751702,20.5219534 37.9331723,20.0535445 41.499243,20.0535445 C45.0653136,20.0535445 48.5240727,20.5219534 51.8751419,21.4585819 L53.9284431,20.1618427 C55.3325763,19.2965926 56.9906988,18.5036675 58.8988362,17.7828782 C60.8081091,17.0624675 62.2680745,16.8640469 63.2772184,17.1887524 C64.8976778,21.261108 65.0420845,24.9366224 63.708546,28.2154849 C66.5542862,31.2788869 67.9781026,34.9911319 67.9781026,39.3514624 C67.9781026,42.4144857 67.6075281,45.1255397 66.8703534,47.4863283 C66.1322324,49.8474955 65.1781638,51.7381712 64.0077689,53.1623313 C62.8360491,54.586302 61.3768407,55.7845882 59.6299544,56.7570006 C57.8826896,57.7301704 56.1887966,58.4325944 54.5501681,58.8654088 C52.9107824,59.2982232 51.0649122,59.6234967 49.0118004,59.8397146 C50.8843565,61.4607806 51.8208238,64.0196111 51.8208238,67.5150702 L51.8208238,78.9199 C51.8208238,79.5677962 52.0460453,80.1087196 52.4968669,80.540966 C52.9471207,80.972455 53.6581772,81.0994972 54.6309828,80.9186846 C62.9893512,78.1443935 69.8069393,73.144308 75.0841257,65.9186174 C80.3607444,58.6934948 83,50.5588182 83,41.5125051 C82.9981074,33.9825569 81.1418278,27.037268 77.4330538,20.6766382 Z" id="Shape"></path>
            </g>
        </g>
    </g>
</svg>