
<svg width="87px" height="86px" viewBox="0 0 87 86" version="1.1" xmlns="http://www.w3.org/2000/svg" xmlns:xlink="http://www.w3.org/1999/xlink">
    <!-- Generator: Sketch 47.1 (45422) - http://www.bohemiancoding.com/sketch -->
    <desc>Created with Sketch.</desc>
    <defs></defs>
    <g id="Page-1" stroke="none" stroke-width="1" fill="none" fill-rule="evenodd">
        <g id="Artboard-2" transform="translate(-295.000000, -544.000000)">
            <g id="Group-12" transform="translate(265.000000, 513.000000)">
                <circle id="Oval" cx="73.5" cy="73.5" r="73.5"></circle>
                <g id="Group-2" transform="translate(30.000000, 31.000000)" fill-rule="nonzero" fill="#000000">
                    <path d="M43.0142045,0 C20.0026555,0 1.27941085,18.548208 0.576704545,41.65625 C0.564116145,42.098647 0.559623645,42.542277 0.545454545,43 C0.545454545,43.552285 0.993169845,44 1.54545455,44 C2.09773925,44 2.54545455,43.552285 2.54545455,43 C2.55446455,42.560265 2.56254255,42.073761 2.57670455,41.65625 C3.27244095,19.614555 21.0935565,2 43.0142045,2 C59.7973345,2 74.3099565,12.278032 80.4517045,27 L62.5454545,27 C62.0171415,26.9925 61.5454545,27.471635 61.5454545,28 C61.5454545,28.528365 62.0171415,29.007472 62.5454545,29 L82.5454545,29 C83.0690385,28.999948 83.5454025,28.523584 83.5454545,28 L83.5454545,8 C83.5680645,7.421763 82.9945465,6.896038 82.4204545,6.96875 C81.9292265,7.030302 81.5261935,7.505306 81.5454545,8 L81.5454545,24.5 C74.7085975,9.987666 59.9443845,0 43.0142045,0 Z M85.5454545,42 C84.9931695,42 84.5454545,42.447715 84.5454545,43 C84.5337745,43.552261 84.5094345,44.16845 84.4927645,44.679629 C83.6262835,66.562662 65.8849315,84 44.0767045,84 C27.2908825,84 12.7792535,73.725784 6.63920455,59 L24.5454545,59 C25.0737675,59.0075 25.5454545,58.528365 25.5454545,58 C25.5454545,57.471635 25.0737675,56.992528 24.5454545,57 L4.54545455,57 C4.48313455,56.9941 4.42027055,56.9941 4.35795455,57 C3.89955255,57.08747 3.53723115,57.5334 3.54545455,58 L3.54545455,78 C3.53798455,78.528313 4.01708955,79 4.54545455,79 C5.07381955,79 5.55292655,78.528313 5.54545455,78 L5.54545455,61.53125 C12.3823115,76.04356 27.1465235,86 44.0767045,86 C67.0164695,86 85.6855215,67.569793 86.4979295,44.562432 C86.5142365,44.040321 86.5286955,43.541396 86.5454545,43 C86.5454545,42.447715 86.0977395,42 85.5454545,42 Z" id="Shape"></path>
                </g>
            </g>
        </g>
    </g>
</svg>