<svg width="26px" height="12px" viewBox="0 0 26 12" version="1.1" xmlns="http://www.w3.org/2000/svg" xmlns:xlink="http://www.w3.org/1999/xlink">
    <!-- Generator: Sketch 47.1 (45422) - http://www.bohemiancoding.com/sketch -->
    <desc>Created with Sketch.</desc>
    <defs></defs>
    <g id="Page-1" stroke="none" stroke-width="1" fill="none" fill-rule="evenodd">
        <g id="Artboard-3" transform="translate(-1175.000000, -629.000000)">
            <g id="Group" transform="translate(1172.000000, 619.000000)">
                <rect id="Rectangle-path" x="0" y="0" width="32" height="32"></rect>
                <path d="M4,10 C3.63936408,9.99489971 3.30391864,10.1843753 3.12211228,10.4958728 C2.94030592,10.8073704 2.94030592,11.1926296 3.12211228,11.5041272 C3.30391864,11.8156247 3.63936408,12.0051003 4,12 L28,12 C28.3606359,12.0051003 28.6960814,11.8156247 28.8778877,11.5041272 C29.0596941,11.1926296 29.0596941,10.8073704 28.8778877,10.4958728 C28.6960814,10.1843753 28.3606359,9.99489971 28,10 L4,10 Z" id="Shape" fill="#FFFFFF"></path>
                <path d="M4,20 C3.63936408,19.9948997 3.30391864,20.1843753 3.12211228,20.4958728 C2.94030592,20.8073704 2.94030592,21.1926296 3.12211228,21.5041272 C3.30391864,21.8156247 3.63936408,22.0051003 4,22 L28,22 C28.3606359,22.0051003 28.6960814,21.8156247 28.8778877,21.5041272 C29.0596941,21.1926296 29.0596941,20.8073704 28.8778877,20.4958728 C28.6960814,20.1843753 28.3606359,19.9948997 28,20 L4,20 Z" id="Shape" fill="#FFFFFF"></path>
            </g>
        </g>
    </g>
</svg>