
<svg width="357px" height="131px" viewBox="0 0 357 131" version="1.1" xmlns="http://www.w3.org/2000/svg" xmlns:xlink="http://www.w3.org/1999/xlink">
    <!-- Generator: Sketch 48.2 (47327) - http://www.bohemiancoding.com/sketch -->
    <desc>Created with Sketch.</desc>
    <defs></defs>
    <g id="Page-1" stroke="none" stroke-width="1" fill="none" fill-rule="evenodd">
        <g id="Artboard-7" transform="translate(-188.000000, -124.000000)" fill="#FFFFFF">
            <g id="Group-4" transform="translate(188.000000, 124.000000)">
                <path d="M3.36,50.64 C4.960008,44.8799712 7.5199824,40.7400126 11.04,38.22 C14.5600176,35.6999874 18.3599796,34.44 22.44,34.44 L23.52,34.44 C23.8400016,34.44 24.199998,34.4799996 24.6,34.56 L24.6,36.84 C24.2799984,36.7599996 23.9800014,36.72 23.7,36.72 L23.04,36.72 C19.5199824,36.72 16.5200124,37.4999922 14.04,39.06 C11.5599876,40.6200078 9.520008,42.6599874 7.92,45.18 C6.319992,47.7000126 5.1400038,50.4999846 4.38,53.58 C3.6199962,56.6600154 3.24,59.7199848 3.24,62.76 L3.24,91.32 L0.6,91.32 L0.6,50.04 C0.6,49.1599956 0.5800002,48.0800064 0.54,46.8 C0.4999998,45.5199936 0.4600002,44.2200066 0.42,42.9 C0.3799998,41.5799934 0.3200004,40.320006 0.24,39.12 C0.1599996,37.919994 0.0800004,36.920004 0,36.12 L2.64,36.12 C2.7200004,36.920004 2.7799998,37.919994 2.82,39.12 C2.8600002,40.320006 2.8999998,41.619993 2.94,43.02 C2.9800002,44.420007 3.0199998,45.7799934 3.06,47.1 C3.1000002,48.4200066 3.12,49.5999948 3.12,50.64 L3.36,50.64 Z M33.96,63.12 C33.96,66.4800168 34.459995,69.7999836 35.46,73.08 C36.460005,76.3600164 37.9799898,79.299987 40.02,81.9 C42.0600102,84.500013 44.6399844,86.599992 47.76,88.2 C50.8800156,89.800008 54.5599788,90.6 58.8,90.6 C63.1200216,90.6 66.9599832,89.7400086 70.32,88.02 C73.6800168,86.2999914 76.5999876,83.8000164 79.08,80.52 L81,82.2 C78.2799864,85.7200176 75.1000182,88.3999908 71.46,90.24 C67.8199818,92.0800092 63.600024,93 58.8,93 C54.7199796,93 51.0000168,92.2600074 47.64,90.78 C44.2799832,89.2999926 41.3800122,87.2400132 38.94,84.6 C36.4999878,81.9599868 34.6200066,78.8000184 33.3,75.12 C31.9799934,71.4399816 31.32,67.4400216 31.32,63.12 C31.32,58.9599792 31.9999932,55.1200176 33.36,51.6 C34.7200068,48.0799824 36.5799882,45.0400128 38.94,42.48 C41.3000118,39.9199872 44.079984,37.940007 47.28,36.54 C50.480016,35.139993 53.9199816,34.44 57.6,34.44 C61.9200216,34.44 65.679984,35.1999924 68.88,36.72 C72.080016,38.2400076 74.7399894,40.2399876 76.86,42.72 C78.9800106,45.2000124 80.5599948,48.0199842 81.6,51.18 C82.6400052,54.3400158 83.16,57.5599836 83.16,60.84 L83.16,63.12 L33.96,63.12 Z M80.64,60.84 C80.5599996,57.239982 79.9400058,53.9600148 78.78,51 C77.6199942,48.0399852 76.04001,45.5000106 74.04,43.38 C72.03999,41.2599894 69.640014,39.6200058 66.84,38.46 C64.039986,37.2999942 60.9200172,36.72 57.48,36.72 C53.3199792,36.72 49.7600148,37.5799914 46.8,39.3 C43.8399852,41.0200086 41.4200094,43.1399874 39.54,45.66 C37.6599906,48.1800126 36.2800044,50.8199862 35.4,53.58 C34.5199956,56.3400138 34.08,58.7599896 34.08,60.84 L80.64,60.84 Z M127.08,91.32 L114.84,91.32 L91.68,34.44 L104.16,34.44 L120.84,79.2 L121.08,79.2 L137.88,34.44 L149.88,34.44 L127.08,91.32 Z M172.2,91.32 L160.92,91.32 L160.92,34.44 L172.2,34.44 L172.2,91.32 Z M174.12,13.92 C174.12,16.0000104 173.380007,17.7199932 171.9,19.08 C170.419993,20.4400068 168.64001,21.12 166.56,21.12 C164.47999,21.12 162.720007,20.420007 161.28,19.02 C159.839993,17.619993 159.12,15.92001 159.12,13.92 C159.12,11.8399896 159.839993,10.100007 161.28,8.7 C162.720007,7.299993 164.47999,6.6 166.56,6.6 C168.64001,6.6 170.419993,7.299993 171.9,8.7 C173.380007,10.100007 174.12,11.8399896 174.12,13.92 Z M232.44,43.68 L200.04,81.84 L233.76,81.84 L233.76,91.32 L186.12,91.32 L186.12,82.08 L218.28,43.68 L187.68,43.68 L187.68,34.44 L232.44,34.44 L232.44,43.68 Z M284.1,72.72 C284.1,75.320013 283.700004,77.8033215 282.9,80.17 C282.099996,82.5366785 280.883342,84.6366575 279.25,86.47 C277.616659,88.3033425 275.51668,89.7699945 272.95,90.87 C270.383321,91.9700055 267.333351,92.52 263.8,92.52 C259.266644,92.52 255.250018,91.486677 251.75,89.42 C248.249983,87.353323 245.633342,84.620017 243.9,81.22 L246,80.32 C247.466674,83.386682 249.799984,85.819991 253,87.62 C256.200016,89.420009 259.79998,90.386666 263.8,90.52 C266.733348,90.586667 269.333322,90.153338 271.6,89.22 C273.866678,88.286662 275.766659,87.0033415 277.3,85.37 C278.833341,83.7366585 279.98333,81.820011 280.75,79.62 C281.516671,77.419989 281.9,75.086679 281.9,72.62 C281.9,69.553318 281.250007,66.920011 279.95,64.72 C278.649994,62.519989 277.00001,60.7033405 275,59.27 C272.99999,57.8366595 270.800012,56.78667 268.4,56.12 C265.999988,55.45333 263.733344,55.12 261.6,55.12 L259.4,55.12 L259.4,53.12 L261.6,53.12 C263.733344,53.12 265.84999,52.8033365 267.95,52.17 C270.050011,51.5366635 271.949992,50.55334 273.65,49.22 C275.350009,47.88666 276.733328,46.186677 277.8,44.12 C278.866672,42.053323 279.4,39.553348 279.4,36.62 C279.4,34.286655 279.000004,32.1700095 278.2,30.27 C277.399996,28.3699905 276.300007,26.75334 274.9,25.42 C273.499993,24.08666 271.850009,23.053337 269.95,22.32 C268.049991,21.586663 266.000011,21.22 263.8,21.22 C260.866652,21.22 258.06668,21.853327 255.4,23.12 C252.73332,24.386673 250.633341,26.186655 249.1,28.52 L247.3,27.32 C249.033342,24.853321 251.316653,22.9033405 254.15,21.47 C256.983348,20.0366595 260.199982,19.32 263.8,19.32 C266.333346,19.32 268.683323,19.719996 270.85,20.52 C273.016678,21.320004 274.883326,22.4699925 276.45,23.97 C278.016675,25.4700075 279.249996,27.286656 280.15,29.42 C281.050005,31.553344 281.5,33.95332 281.5,36.62 C281.5,38.62001 281.21667,40.5699905 280.65,42.47 C280.083331,44.3700095 279.200006,46.086659 278,47.62 C276.799994,49.153341 275.25001,50.486661 273.35,51.62 C271.449991,52.753339 269.200013,53.519998 266.6,53.92 L266.6,54.12 C269.600015,54.586669 272.199989,55.419994 274.4,56.62 C276.600011,57.820006 278.41666,59.253325 279.85,60.92 C281.283341,62.586675 282.349997,64.4366565 283.05,66.47 C283.750003,68.5033435 284.1,70.586656 284.1,72.72 Z M353.84,0.6 L356.48,0.6 L356.48,91.32 L353.84,91.32 L353.84,76.44 L353.48,76.44 C351.079988,81.8800272 347.660022,85.999986 343.22,88.8 C338.779978,91.600014 333.920026,93 328.64,93 C324.63998,93 320.940017,92.2600074 317.54,90.78 C314.139983,89.2999926 311.220012,87.260013 308.78,84.66 C306.339988,82.059987 304.440007,78.9800178 303.08,75.42 C301.719993,71.8599822 301.04,68.0000208 301.04,63.84 C301.04,59.6799792 301.719993,55.800018 303.08,52.2 C304.440007,48.599982 306.339988,45.4800132 308.78,42.84 C311.220012,40.1999868 314.139983,38.1400074 317.54,36.66 C320.940017,35.1799926 324.63998,34.44 328.64,34.44 C333.920026,34.44 338.779978,35.839986 343.22,38.64 C347.660022,41.440014 351.079988,45.5999724 353.48,51.12 L353.84,51.12 L353.84,0.6 Z M303.68,63.84 C303.68,67.440018 304.259994,70.8799836 305.42,74.16 C306.580006,77.4400164 308.239989,80.2999878 310.4,82.74 C312.560011,85.1800122 315.179985,87.1199928 318.26,88.56 C321.340015,90.0000072 324.799981,90.72 328.64,90.72 C332.320018,90.72 335.699985,90.0000072 338.78,88.56 C341.860015,87.1199928 344.519989,85.1800122 346.76,82.74 C349.000011,80.2999878 350.759994,77.4400164 352.04,74.16 C353.320006,70.8799836 353.96,67.4000184 353.96,63.72 C353.96,60.0399816 353.320006,56.5600164 352.04,53.28 C350.759994,49.9999836 349.000011,47.1400122 346.76,44.7 C344.519989,42.2599878 341.860015,40.3200072 338.78,38.88 C335.699985,37.4399928 332.320018,36.72 328.64,36.72 C324.799981,36.72 321.340015,37.4599926 318.26,38.94 C315.179985,40.4200074 312.560011,42.3999876 310.4,44.88 C308.239989,47.3600124 306.580006,50.2399836 305.42,53.52 C304.259994,56.8000164 303.68,60.239982 303.68,63.84 Z" id="reviz3d"></path>
                <text id="data-visualization-p" font-family="AvenirNext-Regular, Avenir Next" font-size="20" font-weight="normal">
                    <tspan x="23.04" y="126">data visualization prototyping tool</tspan>
                </text>
            </g>
        </g>
    </g>
</svg>