
<svg width="454px" height="43px" viewBox="0 0 454 43" version="1.1" xmlns="http://www.w3.org/2000/svg" xmlns:xlink="http://www.w3.org/1999/xlink">
    <!-- Generator: Sketch 48.2 (47327) - http://www.bohemiancoding.com/sketch -->
    <desc>Created with Sketch.</desc>
    <defs></defs>
    <g id="Page-1" stroke="none" stroke-width="1" fill="none" fill-rule="evenodd">
        <g id="Artboard-7" transform="translate(-153.000000, -347.000000)" fill="#FFFFFF">
            <g id="Group-3" transform="translate(153.000000, 347.000000)">
                <path d="M41.0488478,10.9764869 C39.0815467,7.59975578 36.4130285,4.92639303 33.0425907,2.95579561 C29.6716513,0.985097688 25.9915904,0 21.9997993,0 C18.0085099,0 14.327245,0.985399218 10.9570079,2.95579561 C7.58626917,4.92629252 4.91785126,7.59975578 2.95055023,10.9764869 C0.983550186,14.3531176 0,18.0404243 0,22.0383068 C0,26.8406706 1.39862181,31.1590791 4.19656775,34.994638 C6.99421269,38.8304985 10.6083558,41.4847643 15.0386961,42.9577371 C15.5544002,43.0536236 15.9361618,42.9861814 16.184382,42.7571193 C16.4327026,42.5277557 16.5567124,42.2404984 16.5567124,41.8965534 C16.5567124,41.8391623 16.5517962,41.3228428 16.5422647,40.3469921 C16.5324322,39.3711413 16.5278169,38.5198223 16.5278169,37.7934371 L15.8689396,37.9076164 C15.4488514,37.9847075 14.9189002,38.0173732 14.2790859,38.0081263 C13.6395726,37.9991809 12.9756787,37.9320403 12.2883073,37.807207 C11.6006348,37.6834793 10.9610212,37.3965235 10.3689647,36.9469426 C9.77720923,36.4973618 9.35712103,35.9088762 9.10880045,35.1823905 L8.82235387,34.5220404 C8.63142293,34.08241 8.33082961,33.5940323 7.92017257,33.0587165 C7.50951554,32.5228982 7.09424325,32.1596553 6.67415505,31.9683849 L6.47359228,31.8245553 C6.33995066,31.7289703 6.21594086,31.6136855 6.1012619,31.4799068 C5.98668327,31.3461281 5.90089979,31.2122488 5.84361048,31.0781686 C5.78622083,30.9439879 5.83377798,30.8339295 5.9867836,30.7475915 C6.13978921,30.6612535 6.41630296,30.6193409 6.81752883,30.6193409 L7.39022132,30.7050758 C7.77218353,30.7817649 8.2446448,31.010827 8.80820712,31.3936692 C9.37146844,31.77621 9.83449855,32.2735331 10.1973978,32.8854374 C10.63685,33.6700178 11.1662995,34.2678508 11.7872515,34.6792379 C12.4077018,35.090625 13.033269,35.2959667 13.6633512,35.2959667 C14.2934333,35.2959667 14.8376316,35.248124 15.2961468,35.1529411 C15.7541603,35.0572557 16.1838804,34.913426 16.5851062,34.7222561 C16.7569742,33.4399506 17.2249205,32.4548529 17.988544,31.7662595 C16.9001473,31.6516782 15.9216137,31.4791027 15.0524415,31.2496385 C14.1837709,31.0198729 13.2861045,30.6469811 12.3600443,30.1299581 C11.4334825,29.6136386 10.6648425,28.9724859 10.0539236,28.2076054 C9.44290451,27.4423229 8.94144742,26.4376258 8.55025471,25.1944186 C8.15886133,23.9507089 7.96311447,22.5160304 7.96311447,20.889981 C7.96311447,18.5747351 8.71760773,16.6045397 10.2262933,14.9782892 C9.51955781,13.2376585 9.58627829,11.286359 10.4266554,9.12459172 C10.9804855,8.95221721 11.8017996,9.08157347 12.8901962,9.51185642 C13.9787936,9.94234039 14.7758274,10.3111113 15.2821004,10.6168624 C15.7883734,10.9225131 16.1940139,11.1815272 16.4996238,11.3915929 C18.2759939,10.8943703 20.1091516,10.6457088 21.9995987,10.6457088 C23.8900457,10.6457088 25.7236048,10.8943703 27.5000752,11.3915929 L28.5885722,10.7032005 C29.332932,10.2438701 30.2119367,9.82293461 31.2234794,9.44029336 C32.2356241,9.05785313 33.0095817,8.95251874 33.5445495,9.12489325 C34.4035882,11.286761 34.4801412,13.23796 33.7732051,14.9785908 C35.2817903,16.6048412 36.0365845,18.5755391 36.0365845,20.8902825 C36.0365845,22.5163319 35.8401354,23.9555334 35.449344,25.2087916 C35.0580509,26.4622507 34.5522796,27.4659427 33.9318293,28.2219783 C33.3106766,28.9779134 32.5371204,29.6140407 31.6110602,30.1302596 C30.6847993,30.6468806 29.7868319,31.0197724 28.9181614,31.249538 C28.0490895,31.4793037 27.0705559,31.6519797 25.9821592,31.7667621 C26.9748396,32.627328 27.4712801,33.9857195 27.4712801,35.8413335 L27.4712801,41.8957494 C27.4712801,42.2396943 27.5906746,42.5268511 27.8296644,42.7563153 C28.0683531,42.9853774 28.4452988,43.0528195 28.961003,42.9568325 C33.3919452,41.4840607 37.0060883,38.8296944 39.8036329,34.9938339 C42.6008765,31.158275 44,26.8398665 44,22.0375027 C43.9989967,18.0401228 43.0149448,14.3531176 41.0488478,10.9764869 Z" id="Shape" fill-rule="nonzero"></path>
                <text id="github.com/lucascass" font-family="AvenirNext-Regular, Avenir Next" font-size="20" font-weight="normal">
                    <tspan x="64.13" y="28">github.com/lucascassiano/reViz3d/reViz3D</tspan>
                </text>
            </g>
        </g>
    </g>
</svg>