
<svg width="76px" height="76px" viewBox="0 0 76 76" version="1.1" xmlns="http://www.w3.org/2000/svg" xmlns:xlink="http://www.w3.org/1999/xlink">
    <!-- Generator: Sketch 47.1 (45422) - http://www.bohemiancoding.com/sketch -->
    <desc>Created with Sketch.</desc>
    <defs></defs>
    <g id="Page-1" stroke="none" stroke-width="1" fill="none" fill-rule="evenodd">
        <g id="Artboard-2" transform="translate(-75.000000, -202.000000)" fill-rule="nonzero" fill="#000000">
            <g id="Group" transform="translate(75.000000, 202.000000)">
                <path d="M7.9375,0 C3.558445,0 0,3.55845 0,7.9375 L0,68.0625 C0,72.4416 3.558445,76 7.9375,76 L68.0625,76 C72.441555,76 76,72.4416 76,68.0625 L76,7.9375 C76,3.55845 72.441555,0 68.0625,0 L7.9375,0 Z M7.9375,2 L15,2 L15,35 C15.0000552,35.5522619 15.4477381,35.9999448 16,36 L60,36 C60.5522619,35.9999448 60.9999448,35.5522619 61,35 L61,2 L68.0625,2 C71.368149,2 74,4.63185 74,7.9375 L74,68.0625 C74,71.3681 71.368149,74 68.0625,74 L61,74 L61,61 C60.9999448,60.4477381 60.5522619,60.0000552 60,60 L46,60 C45.9376379,59.9941283 45.8748621,59.9941283 45.8125,60 C45.334418,60.0912215 44.9914236,60.5133685 45,61 L45,74 L7.9375,74 C4.631851,74 2,71.3681 2,68.0625 L2,7.9375 C2,4.63185 4.631851,2 7.9375,2 Z M17,2 L59,2 L59,34 L17,34 L17,2 Z M47,62 L59,62 L59,74 L47,74 L47,62 Z" id="Shape"></path>
            </g>
        </g>
    </g>
</svg>