
<svg width="83px" height="77px" viewBox="0 0 83 77" version="1.1" xmlns="http://www.w3.org/2000/svg" xmlns:xlink="http://www.w3.org/1999/xlink">
    <!-- Generator: Sketch 48.2 (47327) - http://www.bohemiancoding.com/sketch -->
    <desc>Created with Sketch.</desc>
    <defs>
        <path d="M195.415252,449 L203.960261,457.518595 L175.678083,469.758877 L167,461.10791 L195.415252,449 Z M217.053424,449 L245.473426,461.10791 L236.800098,469.754271 L208.456136,457.575325 L217.053424,449 Z M206.236713,459.389015 L233.953344,471.198482 L227.656272,473.892712 L206.231961,483.022011 L178.505825,471.207937 L206.236713,459.389015 Z M175.687587,472.642694 L176.314917,472.90768 L204.079076,484.778727 L195.415252,493.415632 L167,481.307964 L175.687587,472.642694 Z M236.781089,472.642694 L245.473426,481.307964 L217.053424,493.415632 L208.394353,484.778727 L226.981415,476.818956 L236.781089,472.642694 Z M205.020071,487.26955 L205.020071,521.91657 C202.918032,521.020272 185.555865,513.612777 176.657098,509.827813 L176.657098,488.055539 L195.215645,495.963186 C195.672843,496.159023 196.203651,496.05772 196.555854,495.707412 L205.020071,487.26955 Z M207.453355,487.26955 L215.912822,495.707412 C216.265024,496.057719 216.795832,496.159022 217.253029,495.963186 L235.787815,488.064994 L235.787815,509.822964 L207.453355,521.907115 L207.453355,487.26955 Z" id="path-1"></path>
    </defs>
    <g id="Page-1" stroke="none" stroke-width="1" fill="none" fill-rule="evenodd">
        <g id="Artboard-7" transform="translate(-165.000000, -447.000000)">
            <g id="Shape">
                <use fill="#FFFFFF" fill-rule="evenodd" xlink:href="#path-1"></use>
                <path stroke="#000000" stroke-width="1" d="M195.529457,448.407837 L204.835153,457.684767 L175.56534,470.352489 L166.121912,460.938569 L195.529457,448.407837 Z M216.939114,448.407814 L246.351542,460.938533 L236.91352,470.347209 L207.579966,457.743053 L216.939114,448.407814 Z M206.236685,458.845509 L235.226672,471.197526 L234.150026,471.658174 L227.852278,474.352692 L206.231965,483.565511 L177.230433,471.207992 L206.236685,458.845509 Z M175.882144,472.182099 L176.511487,472.447941 L204.956457,484.610081 L195.529456,494.007792 L166.122113,481.477397 L175.572487,472.051299 L175.882144,472.182099 Z M236.895277,472.05052 L246.351548,481.477345 L216.939113,494.007816 L207.517494,484.610316 L208.197521,484.3191 L226.785391,476.358983 L236.895277,472.05052 Z M205.520071,486.0651 L205.520071,522.673324 L204.823957,522.376504 C204.566099,522.266555 200.622814,520.584584 198.859602,519.832587 C195.061917,518.212901 191.515487,516.700726 188.165077,515.272659 C188.152182,515.267163 188.152182,515.267163 188.139286,515.261666 C183.332803,513.212973 179.363721,511.522385 176.461397,510.287922 L176.157098,510.158493 L176.157098,487.298996 L176.853094,487.595554 L195.412515,495.503575 C195.682338,495.619152 195.995698,495.559348 196.202852,495.353308 L205.520071,486.0651 Z M207.806456,486.915545 L216.26542,495.352906 C216.472978,495.559347 216.786337,495.619151 217.057019,495.503207 L236.287815,487.308426 L236.287815,510.153296 L206.953355,522.66393 L206.953355,486.064623 L207.806456,486.915545 Z"></path>
            </g>
        </g>
    </g>
</svg>