
<svg width="53px" height="48px" viewBox="0 0 53 48" version="1.1" xmlns="http://www.w3.org/2000/svg" xmlns:xlink="http://www.w3.org/1999/xlink">
    <!-- Generator: Sketch 48.2 (47327) - http://www.bohemiancoding.com/sketch -->
    <desc>Created with Sketch.</desc>
    <defs></defs>
    <g id="Page-1" stroke="none" stroke-width="1" fill="none" fill-rule="evenodd">
        <g id="Artboard-7" transform="translate(-180.000000, -425.000000)" fill="#FFFFFF" fill-rule="nonzero">
            <g id="Group" transform="translate(182.000000, 427.000000)">
                <path d="M49,22.0050355 C49,18.7319753 44.9349776,15.6301213 38.7026091,13.706569 C40.1408479,7.30144198 39.5016307,2.20553902 36.6850795,0.574044404 C36.0358744,0.191348135 35.2768039,0.0100709545 34.447819,0.0100709545 L34.447819,2.2558938 C34.9072564,2.2558938 35.2768039,2.34653239 35.5864248,2.51773861 C36.9447615,3.30327306 37.53404,6.29434653 37.0746025,10.1414511 C36.9647371,11.0881209 36.7849572,12.0851453 36.5652263,13.1023117 C34.6076233,12.6189059 32.4702405,12.2462806 30.2229923,12.0045777 C28.8746433,10.1414511 27.4763555,8.44953079 26.0680799,6.96910048 C29.3240929,3.91760128 32.3803506,2.24582284 34.4578068,2.24582284 L34.4578068,0 C31.71117,0 28.1155728,1.97390707 24.4800245,5.39803159 C20.8444762,1.99404898 17.2488789,0.0402838178 14.5022422,0.0402838178 L14.5022422,2.28610666 C16.5697106,2.28610666 19.635956,3.94781415 22.891969,6.97917144 C21.4936812,8.45960174 20.0953934,10.1414511 18.76702,12.0045777 C16.5097839,12.2462806 14.3724011,12.6189059 12.4147982,13.1123827 C12.1850795,12.1052873 12.0152874,11.1284047 11.8954342,10.1918059 C11.426009,6.3447013 12.0052996,3.35362783 13.3536486,2.55802243 C13.6532817,2.37674525 14.0428047,2.29617762 14.5022422,2.29617762 L14.5022422,0.0503547723 C13.6632695,0.0503547723 12.9041989,0.231631952 12.2450061,0.614328222 C9.43844272,2.24582284 8.80921321,7.33165484 10.2574399,13.71664 C4.04504688,15.6502632 0,18.7420462 0,22.0050355 C0,25.2780957 4.06502242,28.3799496 10.2973909,30.3035019 C8.85915206,36.708629 9.49836934,41.8045319 12.3149205,43.4360266 C12.9641256,43.8187228 13.7231961,44 14.5621688,44 C17.3088055,44 20.9044028,42.0260929 24.5399511,38.6019684 C28.1754994,42.005951 31.7710966,43.9597162 34.5177334,43.9597162 C35.3567061,43.9597162 36.1157766,43.778439 36.7749694,43.3957427 C39.5815328,41.7642481 40.2107623,36.6784161 38.7625357,30.293431 C44.9549531,28.3698787 49,25.2680247 49,22.0050355 Z M35.9959234,15.2877089 C35.6263759,16.586862 35.1669384,17.9262989 34.6475744,19.2657359 C34.2380758,18.4600595 33.8086017,17.6543832 33.3391765,16.8487068 C32.8797391,16.0430304 32.3903384,15.257496 31.9009376,14.4921035 C33.319201,14.7035935 34.6875255,14.9654383 35.9959234,15.2877089 Z M31.4215247,26.0132753 C30.6424786,27.3728542 29.843457,28.6619364 29.0144721,29.8603799 C27.5262943,29.9913024 26.0181411,30.061799 24.5,30.061799 C22.9918467,30.061799 21.4836934,29.9913024 20.0055035,29.8704509 C19.1765185,28.6720073 18.3675092,27.3929961 17.5884631,26.0434882 C16.8293926,24.7241932 16.1402364,23.3847562 15.5110069,22.0352483 C16.1302487,20.6857404 16.8293926,19.3362325 17.5784753,18.0169375 C18.3575214,16.6573587 19.156543,15.3682765 19.9855279,14.1698329 C21.4737057,14.0389105 22.9818589,13.9684138 24.5,13.9684138 C26.0081533,13.9684138 27.5163066,14.0389105 28.9944965,14.159762 C29.8234815,15.3582055 30.6324908,16.6372168 31.4115369,17.9867247 C32.1706074,19.3060197 32.8597636,20.6454566 33.4889931,21.9949645 C32.8597636,23.3444724 32.1706074,24.6939803 31.4215247,26.0132753 Z M34.6475744,24.7040513 C35.186914,26.0535592 35.6463514,27.4030671 36.0258867,28.7122911 C34.7174888,29.0345617 33.3391765,29.3064775 31.9109254,29.5179675 C32.4003261,28.742504 32.8897269,27.9468986 33.3491643,27.1311513 C33.8086017,26.3254749 34.2380758,25.5097276 34.6475744,24.7040513 Z M24.5199755,35.4497597 C23.5911129,34.482948 22.6622503,33.4053559 21.7433755,32.2270542 C22.6422748,32.2673381 23.5611496,32.2975509 24.4900122,32.2975509 C25.4288626,32.2975509 26.3577252,32.277409 27.2666123,32.2270542 C26.367713,33.4053559 25.4388504,34.482948 24.5199755,35.4497597 Z M17.0890746,29.5179675 C15.6708113,29.3064775 14.3024868,29.0446326 12.9940889,28.7223621 C13.3636364,27.423209 13.8230738,26.083772 14.3424378,24.7443351 C14.7519364,25.5500114 15.1814105,26.3556878 15.6508357,27.1613642 C16.1202609,27.9670405 16.5996739,28.752575 17.0890746,29.5179675 Z M24.4700367,8.56031128 C25.3988993,9.52712291 26.3277619,10.604715 27.2466368,11.7830167 C26.3477375,11.7427329 25.4288626,11.71252 24.5,11.71252 C23.5611496,11.71252 22.632287,11.7326619 21.7233999,11.7830167 C22.6222992,10.604715 23.5511618,9.52712291 24.4700367,8.56031128 Z M17.0790868,14.4921035 C16.5896861,15.2675669 16.1002854,16.0631724 15.6408479,16.8789197 C15.1814105,17.684596 14.7519364,18.4902724 14.3424378,19.2959487 C13.8030982,17.9464408 13.3436608,16.5969329 12.9641256,15.2877089 C14.2725234,14.9755093 15.6508357,14.7035935 17.0790868,14.4921035 Z M8.04015491,27.1009384 C4.5044843,25.5802243 2.21728496,23.5861753 2.21728496,22.0050355 C2.21728496,20.4238956 4.5044843,18.4197757 8.04015491,16.9091325 C8.89910314,16.5365072 9.83795353,16.2041657 10.8067672,15.8919661 C11.3760701,17.8658732 12.1251529,19.9203479 13.0540155,22.0251774 C12.1351406,24.1199359 11.3960457,26.1643397 10.8367305,28.1281758 C9.8479413,27.8159762 8.90909091,27.4735637 8.04015491,27.1009384 Z M13.4135752,41.4923323 C12.0552385,40.7067979 11.46596,37.7157244 11.9253975,33.8686198 C12.0352629,32.9219501 12.2150428,31.9249256 12.4347737,30.9077592 C14.3923767,31.391165 16.5297595,31.7637903 18.7770077,32.0054932 C20.1253567,33.8686198 21.5236445,35.5605402 22.9319201,37.0409705 C19.6759071,40.0924697 16.6196494,41.7642481 14.5421932,41.7642481 C14.0927436,41.7541772 13.7132083,41.6635386 13.4135752,41.4923323 Z M37.1045658,33.818265 C37.573991,37.6653696 36.9947004,40.6564431 35.6463514,41.4520485 C35.3467183,41.6333257 34.9571953,41.7138933 34.4977578,41.7138933 C32.4302894,41.7138933 29.364044,40.0521859 26.108031,37.0208286 C27.5063188,35.5403983 28.9046066,33.8585489 30.23298,31.9954223 C32.4902161,31.7537194 34.6275989,31.3810941 36.5852018,30.8876173 C36.8149205,31.9047837 36.9947004,32.8816663 37.1045658,33.818265 Z M40.9498573,27.1009384 C40.0909091,27.4735637 39.1520587,27.8059052 38.183245,28.1181048 C37.6139421,26.1441978 36.8648594,24.089723 35.9359967,21.9848936 C36.8548716,19.890135 37.5939666,17.8457313 38.1532817,15.8818952 C39.1420709,16.1940948 40.0809213,16.5365072 40.9598451,16.9091325 C44.4955157,18.4298466 46.782715,20.4238956 46.782715,22.0050355 C46.7727273,23.5861753 44.4855279,25.5902953 40.9498573,27.1009384 Z" id="Shape" stroke="#000000" stroke-width="4"></path>
                <g id="logo">
                    <path d="M49,22.0050355 C49,18.7319753 44.9349776,15.6301213 38.7026091,13.706569 C40.1408479,7.30144198 39.5016307,2.20553902 36.6850795,0.574044404 C36.0358744,0.191348135 35.2768039,0.0100709545 34.447819,0.0100709545 L34.447819,2.2558938 C34.9072564,2.2558938 35.2768039,2.34653239 35.5864248,2.51773861 C36.9447615,3.30327306 37.53404,6.29434653 37.0746025,10.1414511 C36.9647371,11.0881209 36.7849572,12.0851453 36.5652263,13.1023117 C34.6076233,12.6189059 32.4702405,12.2462806 30.2229923,12.0045777 C28.8746433,10.1414511 27.4763555,8.44953079 26.0680799,6.96910048 C29.3240929,3.91760128 32.3803506,2.24582284 34.4578068,2.24582284 L34.4578068,0 C31.71117,0 28.1155728,1.97390707 24.4800245,5.39803159 C20.8444762,1.99404898 17.2488789,0.0402838178 14.5022422,0.0402838178 L14.5022422,2.28610666 C16.5697106,2.28610666 19.635956,3.94781415 22.891969,6.97917144 C21.4936812,8.45960174 20.0953934,10.1414511 18.76702,12.0045777 C16.5097839,12.2462806 14.3724011,12.6189059 12.4147982,13.1123827 C12.1850795,12.1052873 12.0152874,11.1284047 11.8954342,10.1918059 C11.426009,6.3447013 12.0052996,3.35362783 13.3536486,2.55802243 C13.6532817,2.37674525 14.0428047,2.29617762 14.5022422,2.29617762 L14.5022422,0.0503547723 C13.6632695,0.0503547723 12.9041989,0.231631952 12.2450061,0.614328222 C9.43844272,2.24582284 8.80921321,7.33165484 10.2574399,13.71664 C4.04504688,15.6502632 0,18.7420462 0,22.0050355 C0,25.2780957 4.06502242,28.3799496 10.2973909,30.3035019 C8.85915206,36.708629 9.49836934,41.8045319 12.3149205,43.4360266 C12.9641256,43.8187228 13.7231961,44 14.5621688,44 C17.3088055,44 20.9044028,42.0260929 24.5399511,38.6019684 C28.1754994,42.005951 31.7710966,43.9597162 34.5177334,43.9597162 C35.3567061,43.9597162 36.1157766,43.778439 36.7749694,43.3957427 C39.5815328,41.7642481 40.2107623,36.6784161 38.7625357,30.293431 C44.9549531,28.3698787 49,25.2680247 49,22.0050355 Z M35.9959234,15.2877089 C35.6263759,16.586862 35.1669384,17.9262989 34.6475744,19.2657359 C34.2380758,18.4600595 33.8086017,17.6543832 33.3391765,16.8487068 C32.8797391,16.0430304 32.3903384,15.257496 31.9009376,14.4921035 C33.319201,14.7035935 34.6875255,14.9654383 35.9959234,15.2877089 Z M31.4215247,26.0132753 C30.6424786,27.3728542 29.843457,28.6619364 29.0144721,29.8603799 C27.5262943,29.9913024 26.0181411,30.061799 24.5,30.061799 C22.9918467,30.061799 21.4836934,29.9913024 20.0055035,29.8704509 C19.1765185,28.6720073 18.3675092,27.3929961 17.5884631,26.0434882 C16.8293926,24.7241932 16.1402364,23.3847562 15.5110069,22.0352483 C16.1302487,20.6857404 16.8293926,19.3362325 17.5784753,18.0169375 C18.3575214,16.6573587 19.156543,15.3682765 19.9855279,14.1698329 C21.4737057,14.0389105 22.9818589,13.9684138 24.5,13.9684138 C26.0081533,13.9684138 27.5163066,14.0389105 28.9944965,14.159762 C29.8234815,15.3582055 30.6324908,16.6372168 31.4115369,17.9867247 C32.1706074,19.3060197 32.8597636,20.6454566 33.4889931,21.9949645 C32.8597636,23.3444724 32.1706074,24.6939803 31.4215247,26.0132753 Z M34.6475744,24.7040513 C35.186914,26.0535592 35.6463514,27.4030671 36.0258867,28.7122911 C34.7174888,29.0345617 33.3391765,29.3064775 31.9109254,29.5179675 C32.4003261,28.742504 32.8897269,27.9468986 33.3491643,27.1311513 C33.8086017,26.3254749 34.2380758,25.5097276 34.6475744,24.7040513 Z M24.5199755,35.4497597 C23.5911129,34.482948 22.6622503,33.4053559 21.7433755,32.2270542 C22.6422748,32.2673381 23.5611496,32.2975509 24.4900122,32.2975509 C25.4288626,32.2975509 26.3577252,32.277409 27.2666123,32.2270542 C26.367713,33.4053559 25.4388504,34.482948 24.5199755,35.4497597 Z M17.0890746,29.5179675 C15.6708113,29.3064775 14.3024868,29.0446326 12.9940889,28.7223621 C13.3636364,27.423209 13.8230738,26.083772 14.3424378,24.7443351 C14.7519364,25.5500114 15.1814105,26.3556878 15.6508357,27.1613642 C16.1202609,27.9670405 16.5996739,28.752575 17.0890746,29.5179675 Z M24.4700367,8.56031128 C25.3988993,9.52712291 26.3277619,10.604715 27.2466368,11.7830167 C26.3477375,11.7427329 25.4288626,11.71252 24.5,11.71252 C23.5611496,11.71252 22.632287,11.7326619 21.7233999,11.7830167 C22.6222992,10.604715 23.5511618,9.52712291 24.4700367,8.56031128 Z M17.0790868,14.4921035 C16.5896861,15.2675669 16.1002854,16.0631724 15.6408479,16.8789197 C15.1814105,17.684596 14.7519364,18.4902724 14.3424378,19.2959487 C13.8030982,17.9464408 13.3436608,16.5969329 12.9641256,15.2877089 C14.2725234,14.9755093 15.6508357,14.7035935 17.0790868,14.4921035 Z M8.04015491,27.1009384 C4.5044843,25.5802243 2.21728496,23.5861753 2.21728496,22.0050355 C2.21728496,20.4238956 4.5044843,18.4197757 8.04015491,16.9091325 C8.89910314,16.5365072 9.83795353,16.2041657 10.8067672,15.8919661 C11.3760701,17.8658732 12.1251529,19.9203479 13.0540155,22.0251774 C12.1351406,24.1199359 11.3960457,26.1643397 10.8367305,28.1281758 C9.8479413,27.8159762 8.90909091,27.4735637 8.04015491,27.1009384 Z M13.4135752,41.4923323 C12.0552385,40.7067979 11.46596,37.7157244 11.9253975,33.8686198 C12.0352629,32.9219501 12.2150428,31.9249256 12.4347737,30.9077592 C14.3923767,31.391165 16.5297595,31.7637903 18.7770077,32.0054932 C20.1253567,33.8686198 21.5236445,35.5605402 22.9319201,37.0409705 C19.6759071,40.0924697 16.6196494,41.7642481 14.5421932,41.7642481 C14.0927436,41.7541772 13.7132083,41.6635386 13.4135752,41.4923323 Z M37.1045658,33.818265 C37.573991,37.6653696 36.9947004,40.6564431 35.6463514,41.4520485 C35.3467183,41.6333257 34.9571953,41.7138933 34.4977578,41.7138933 C32.4302894,41.7138933 29.364044,40.0521859 26.108031,37.0208286 C27.5063188,35.5403983 28.9046066,33.8585489 30.23298,31.9954223 C32.4902161,31.7537194 34.6275989,31.3810941 36.5852018,30.8876173 C36.8149205,31.9047837 36.9947004,32.8816663 37.1045658,33.818265 Z M40.9498573,27.1009384 C40.0909091,27.4735637 39.1520587,27.8059052 38.183245,28.1181048 C37.6139421,26.1441978 36.8648594,24.089723 35.9359967,21.9848936 C36.8548716,19.890135 37.5939666,17.8457313 38.1532817,15.8818952 C39.1420709,16.1940948 40.0809213,16.5365072 40.9598451,16.9091325 C44.4955157,18.4298466 46.782715,20.4238956 46.782715,22.0050355 C46.7727273,23.5861753 44.4855279,25.5902953 40.9498573,27.1009384 Z" id="Shape"></path>
                    <ellipse id="Oval" cx="24.9083333" cy="22.8301887" rx="4.49166667" ry="4.56603774"></ellipse>
                </g>
            </g>
        </g>
    </g>
</svg>