
<svg width="104px" height="162px" viewBox="0 0 104 162" version="1.1" xmlns="http://www.w3.org/2000/svg" xmlns:xlink="http://www.w3.org/1999/xlink">
    <!-- Generator: Sketch 51.2 (57519) - http://www.bohemiancoding.com/sketch -->
    <desc>Created with Sketch.</desc>
    <defs>
        <path d="M37.3947321,0 L103.091168,1.02140518e-14 C103.643452,2.26416042e-15 104.091168,0.44771525 104.091168,1 C104.091168,1.17519958 104.045139,1.34732458 103.95769,1.49913887 L70.4536149,59.6633494 L70.4536149,159 C70.4536149,160.656854 69.1104692,162 67.4536149,162 L3,162 C1.34314575,162 -2.41183085e-16,160.656854 -4.4408921e-16,159 L2.30926389e-14,54.5449234 C2.37561797e-14,52.4818321 0.531900901,50.4535852 1.54434893,48.656005 L27.2278204,3.05554077 C28.2909923,1.16790142 30.2891933,4.98670256e-15 32.4556459,2.66453526e-15 L37.3947321,0 Z M35.2268075,143.042553 C45.1916806,143.042553 53.2698064,134.940812 53.2698064,124.946809 C53.2698064,114.952805 45.1916806,106.851064 35.2268075,106.851064 C25.2619343,106.851064 17.1838085,114.952805 17.1838085,124.946809 C17.1838085,134.940812 25.2619343,143.042553 35.2268075,143.042553 Z" id="path-1"></path>
        <path d="M63,0 L63,61 L0,61 L37.4585072,0 L63,1.20631101e-15 Z M77.4590164,1.88920261e-15 L103.278108,3.10862447e-15 C103.830393,3.00717141e-15 104.278108,0.44771525 104.278108,1 C104.278108,1.17380686 104.232807,1.34461262 104.146673,1.49557518 L77.4590164,48.2694385 L77.4590164,1.77635684e-15 Z" id="path-3"></path>
    </defs>
    <g id="Page-1" stroke="none" stroke-width="1" fill="none" fill-rule="evenodd">
        <g id="Artboard" transform="translate(-51.000000, -22.000000)">
            <g id="Group-7" transform="translate(51.000000, 22.000000)">
                <g id="icon-b&amp;w">
                    <mask id="mask-2" fill="white">
                        <use xlink:href="#path-1"></use>
                    </mask>
                    <g id="shadow" fill-rule="nonzero"></g>
                    <g id="Group-2" mask="url(#mask-2)">
                        <g transform="translate(-1.000000, 0.000000)">
                            <mask id="mask-4" fill="white">
                                <use xlink:href="#path-3"></use>
                            </mask>
                            <use id="Combined-Shape" stroke="none" fill="#000000" fill-rule="nonzero" xlink:href="#path-3"></use>
                        </g>
                    </g>
                    <g id="Group-3" mask="url(#mask-2)" fill="#000000" fill-rule="nonzero">
                        <path d="M32.6668421,0 L69,0 C70.1045695,-2.02906125e-16 71,0.8954305 71,2 L71,159 C71,160.656854 69.6568542,162 68,162 L3,162 C1.34314575,162 1.56545191e-14,160.656854 0,159 L-1.59872116e-14,54.5661575 C-1.62415159e-14,52.4896053 0.53886074,50.4485907 1.56389758,48.6426648 L27.4487909,3.03825363 C28.5146983,1.16032135 30.5074931,1.2848444e-15 32.6668421,8.8817842e-16 Z" id="Combined-Shape"></path>
                    </g>
                </g>
            </g>
        </g>
    </g>
</svg>