
<svg width="853px" height="853px" viewBox="0 0 853 853" version="1.1" xmlns="http://www.w3.org/2000/svg" xmlns:xlink="http://www.w3.org/1999/xlink">
    <!-- Generator: Sketch 48.2 (47327) - http://www.bohemiancoding.com/sketch -->
    <desc>Created with Sketch.</desc>
    <defs>
        <linearGradient x1="50%" y1="0%" x2="50%" y2="100%" id="linearGradient-1">
            <stop stop-color="#FFFFFF" offset="0%"></stop>
            <stop stop-color="#E3E3E3" offset="100%"></stop>
        </linearGradient>
        <rect id="path-2" x="0" y="0" width="841" height="841"></rect>
        <filter x="-1.1%" y="-1.1%" width="102.1%" height="102.1%" filterUnits="objectBoundingBox" id="filter-3">
            <feOffset dx="0" dy="0" in="SourceAlpha" result="shadowOffsetOuter1"></feOffset>
            <feGaussianBlur stdDeviation="3" in="shadowOffsetOuter1" result="shadowBlurOuter1"></feGaussianBlur>
            <feColorMatrix values="0 0 0 0 0   0 0 0 0 0   0 0 0 0 0  0 0 0 0.5 0" type="matrix" in="shadowBlurOuter1"></feColorMatrix>
        </filter>
        <linearGradient x1="88.482456%" y1="86.1221106%" x2="50%" y2="46.2041546%" id="linearGradient-4">
            <stop stop-color="#FFFFFF" offset="0%"></stop>
            <stop stop-color="#ACACAC" offset="100%"></stop>
        </linearGradient>
        <path d="M769.235294,745.764706 L799,745.764706 C800.104569,745.764706 801,746.660136 801,747.764706 L801,764.235294 C801,765.339864 800.104569,766.235294 799,766.235294 L769.235294,766.235294 L769.235294,796 C769.235294,797.104569 768.339864,798 767.235294,798 L750.764706,798 C749.660136,798 748.764706,797.104569 748.764706,796 L748.764706,766.235294 L719,766.235294 C717.895431,766.235294 717,765.339864 717,764.235294 L717,747.764706 C717,746.660136 717.895431,745.764706 719,745.764706 L748.764706,745.764706 L748.764706,716 C748.764706,714.895431 749.660136,714 750.764706,714 L767.235294,714 C768.339864,714 769.235294,714.895431 769.235294,716 L769.235294,745.764706 Z" id="path-5"></path>
    </defs>
    <g id="Page-1" stroke="none" stroke-width="1" fill="none" fill-rule="evenodd">
        <g id="Artboard-13" transform="translate(-3364.000000, -1238.000000)">
            <g id="Shaders" transform="translate(3370.000000, 1244.000000)">
                <g id="Rectangle">
                    <use fill="black" fill-opacity="1" filter="url(#filter-3)" xlink:href="#path-2"></use>
                    <use fill="url(#linearGradient-1)" fill-rule="evenodd" xlink:href="#path-2"></use>
                </g>
                <text id="MQTT,-Console" font-family="AvenirNext-Regular, Avenir Next" font-size="80" font-weight="normal" fill="#000000">
                    <tspan x="139" y="106">MQTT, Console</tspan>
                </text>
                <polygon id="Rectangle-24" fill="url(#linearGradient-4)" opacity="0.362828351" style="mix-blend-mode: multiply;" points="841 481 841 841 481 841"></polygon>
                <g id="Combined-Shape">
                    <use fill="#4A4A4A" fill-rule="evenodd" xlink:href="#path-5"></use>
                    <path stroke="#979797" stroke-width="1" d="M799,746.264706 L768.735294,746.264706 L768.735294,716 C768.735294,715.171573 768.063721,714.5 767.235294,714.5 L750.764706,714.5 C749.936279,714.5 749.264706,715.171573 749.264706,716 L749.264706,746.264706 L719,746.264706 C718.171573,746.264706 717.5,746.936279 717.5,747.764706 L717.5,764.235294 C717.5,765.063721 718.171573,765.735294 719,765.735294 L749.264706,765.735294 L749.264706,796 C749.264706,796.828427 749.936279,797.5 750.764706,797.5 L767.235294,797.5 C768.063721,797.5 768.735294,796.828427 768.735294,796 L768.735294,765.735294 L799,765.735294 C799.828427,765.735294 800.5,765.063721 800.5,764.235294 L800.5,747.764706 C800.5,746.936279 799.828427,746.264706 799,746.264706 Z"></path>
                </g>
                <g id="wifi" transform="translate(195.000000, 262.000000)" fill="#000000" fill-rule="nonzero">
                    <path d="M270.959625,272.572088 C270.959625,297.661072 250.606339,318 225.499645,318 C200.39295,318 180.039665,297.661072 180.039665,272.572088 C180.039665,247.483104 200.39295,227.144176 225.499645,227.144176 C250.606339,227.144176 270.959625,247.483104 270.959625,272.572088 Z M368.030178,184.241062 C372.622346,179.652133 372.466077,172.128135 367.629562,167.796867 C286.801007,95.4067792 164.106652,95.4891173 83.3697282,167.796867 C78.5332125,172.128135 78.3769438,179.652133 82.9691121,184.241062 L107.123988,208.378899 C111.334009,212.585949 118.108256,212.864905 122.586774,208.943908 C181.457448,157.405232 269.67396,157.520222 328.412515,208.943908 C332.891034,212.864905 339.665281,212.586659 343.875301,208.378899 L368.030178,184.241062 Z M447.663277,103.52276 C452.19862,98.9906156 452.105569,91.5865757 447.414667,87.2162686 C322.564515,-29.0933829 128.389314,-29.0507942 3.58533261,87.2162686 C-1.10556906,91.5865757 -1.19861996,98.9913254 3.33672335,103.52276 L27.463187,127.632204 C31.7925398,131.958503 38.750758,132.055038 43.249165,127.904062 C146.076088,33.0250282 304.89692,33.0008946 407.750125,127.904062 C412.248532,132.055038 419.20675,131.958503 423.536103,127.632204 L447.663277,103.52276 Z" id="Shape"></path>
                </g>
            </g>
        </g>
    </g>
</svg>