
<svg width="853px" height="853px" viewBox="0 0 853 853" version="1.1" xmlns="http://www.w3.org/2000/svg" xmlns:xlink="http://www.w3.org/1999/xlink">
    <!-- Generator: Sketch 48.2 (47327) - http://www.bohemiancoding.com/sketch -->
    <desc>Created with Sketch.</desc>
    <defs>
        <radialGradient cx="50%" cy="50%" fx="50%" fy="50%" r="50%" id="radialGradient-1">
            <stop stop-color="#FFFFFF" stop-opacity="0.5" offset="0%"></stop>
            <stop stop-color="#000000" stop-opacity="0.5" offset="100%"></stop>
        </radialGradient>
        <rect id="path-2" x="0" y="0" width="841" height="841"></rect>
        <filter x="-1.1%" y="-1.1%" width="102.1%" height="102.1%" filterUnits="objectBoundingBox" id="filter-3">
            <feOffset dx="0" dy="0" in="SourceAlpha" result="shadowOffsetOuter1"></feOffset>
            <feGaussianBlur stdDeviation="3" in="shadowOffsetOuter1" result="shadowBlurOuter1"></feGaussianBlur>
            <feComposite in="shadowBlurOuter1" in2="SourceAlpha" operator="out" result="shadowBlurOuter1"></feComposite>
            <feColorMatrix values="0 0 0 0 0   0 0 0 0 0   0 0 0 0 0  0 0 0 0.5 0" type="matrix" in="shadowBlurOuter1"></feColorMatrix>
        </filter>
        <linearGradient x1="87.8469423%" y1="85.4628906%" x2="51.6334673%" y2="47.8985546%" id="linearGradient-4">
            <stop stop-color="#454545" offset="0%"></stop>
            <stop stop-color="#555555" offset="100%"></stop>
        </linearGradient>
    </defs>
    <g id="Page-1" stroke="none" stroke-width="1" fill="none" fill-rule="evenodd">
        <g id="Artboard-13" transform="translate(-1320.000000, -1238.000000)">
            <g id="Arduino" transform="translate(1326.000000, 1244.000000)">
                <g id="Rectangle">
                    <use fill="black" fill-opacity="1" filter="url(#filter-3)" xlink:href="#path-2"></use>
                    <use fill-opacity="0.2" fill="url(#radialGradient-1)" fill-rule="evenodd" xlink:href="#path-2"></use>
                </g>
                <text id="Serial,-Record" font-family="AvenirNext-Regular, Avenir Next" font-size="80" font-weight="normal" fill="#FFFFFF">
                    <tspan x="170.56" y="106">Serial, Record</tspan>
                </text>
                <path d="M651,420.464149 C651,422.68691 649.778332,424.837969 647.766173,425.841796 L583.736399,464.202348 C582.73032,464.775963 581.72424,465.206175 580.502572,465.206175 C579.496493,465.206175 578.274825,464.991069 577.268745,464.417453 C575.256586,463.19852 574.034918,461.190865 574.034918,458.8247 L574.034918,433.298801 L402.498363,433.298801 C420.679657,461.692779 431.602806,509.948201 452.514887,509.948201 L471.70226,509.948201 L471.70226,490.732075 C471.70226,487.146976 474.50491,484.3506 478.098051,484.3506 L542.127825,484.3506 C545.720966,484.3506 548.523617,487.146976 548.523617,490.732075 L548.523617,554.618525 C548.523617,558.203623 545.720966,561 542.127825,561 L478.098051,561 C474.50491,561 471.70226,558.203623 471.70226,554.618525 L471.70226,535.474101 L452.514887,535.474101 C398.33032,535.474101 394.234139,433.298801 362.901949,433.298801 L290.823539,433.298801 C285.00265,455.239602 265.024786,471.659352 241.238192,471.659352 C212.996103,471.58765 190,448.643021 190,420.464149 C190,392.285277 212.996103,369.340648 241.238192,369.340648 C265.024786,369.340648 285.074513,385.688696 290.823539,407.701199 C318.921902,407.701199 322.371317,414.512886 344.433203,364.393213 C373.250195,300.506762 386.185503,305.525899 422.691816,305.525899 C428.081528,290.540189 442.094778,280 458.910678,280 C480.11021,280 497.357288,297.13677 497.357288,318.360551 C497.357288,339.584333 480.182073,356.721102 458.910678,356.721102 C442.094778,356.721102 428.081528,346.109212 422.691816,331.195203 L401.276695,331.195203 C380.364614,331.195203 369.441465,379.522327 351.260171,407.844603 L574.106781,407.844603 L574.106781,382.318704 C574.106781,379.952539 575.328449,377.944884 577.340608,376.72595 C579.352767,375.507017 581.939829,375.722123 583.736399,376.941056 L647.766173,415.301608 C649.778332,416.090329 651,418.241388 651,420.464149 Z" id="Shape" fill="#FFFFFF" fill-rule="nonzero"></path>
                <polygon id="Rectangle-24" fill="url(#linearGradient-4)" opacity="0.176347373" style="mix-blend-mode: lighten;" points="841 481 841 841 481 841"></polygon>
                <path d="M769.235294,745.764706 L799,745.764706 C800.104569,745.764706 801,746.660136 801,747.764706 L801,764.235294 C801,765.339864 800.104569,766.235294 799,766.235294 L769.235294,766.235294 L769.235294,796 C769.235294,797.104569 768.339864,798 767.235294,798 L750.764706,798 C749.660136,798 748.764706,797.104569 748.764706,796 L748.764706,766.235294 L719,766.235294 C717.895431,766.235294 717,765.339864 717,764.235294 L717,747.764706 C717,746.660136 717.895431,745.764706 719,745.764706 L748.764706,745.764706 L748.764706,716 C748.764706,714.895431 749.660136,714 750.764706,714 L767.235294,714 C768.339864,714 769.235294,714.895431 769.235294,716 L769.235294,745.764706 Z" id="Combined-Shape" fill="#FFFFFF"></path>
            </g>
        </g>
    </g>
</svg>