
<svg width="857px" height="857px" viewBox="0 0 857 857" version="1.1" xmlns="http://www.w3.org/2000/svg" xmlns:xlink="http://www.w3.org/1999/xlink">
    <!-- Generator: Sketch 48.2 (47327) - http://www.bohemiancoding.com/sketch -->
    <desc>Created with Sketch.</desc>
    <defs>
        <filter x="-1.5%" y="-1.3%" width="103.1%" height="103.1%" filterUnits="objectBoundingBox" id="filter-1">
            <feOffset dx="0" dy="2" in="SourceAlpha" result="shadowOffsetOuter1"></feOffset>
            <feGaussianBlur stdDeviation="2" in="shadowOffsetOuter1" result="shadowBlurOuter1"></feGaussianBlur>
            <feColorMatrix values="0 0 0 0 0   0 0 0 0 0   0 0 0 0 0  0 0 0 0.5 0" type="matrix" in="shadowBlurOuter1" result="shadowMatrixOuter1"></feColorMatrix>
            <feMerge>
                <feMergeNode in="shadowMatrixOuter1"></feMergeNode>
                <feMergeNode in="SourceGraphic"></feMergeNode>
            </feMerge>
        </filter>
        <radialGradient cx="50%" cy="50%" fx="50%" fy="50%" r="50%" id="radialGradient-2">
            <stop stop-color="#FFFFFF" stop-opacity="0.5" offset="0%"></stop>
            <stop stop-color="#000000" stop-opacity="0.5" offset="100%"></stop>
        </radialGradient>
        <rect id="path-3" x="0" y="0" width="841" height="841"></rect>
        <filter x="-1.1%" y="-1.1%" width="102.1%" height="102.1%" filterUnits="objectBoundingBox" id="filter-4">
            <feOffset dx="0" dy="0" in="SourceAlpha" result="shadowOffsetOuter1"></feOffset>
            <feGaussianBlur stdDeviation="3" in="shadowOffsetOuter1" result="shadowBlurOuter1"></feGaussianBlur>
            <feComposite in="shadowBlurOuter1" in2="SourceAlpha" operator="out" result="shadowBlurOuter1"></feComposite>
            <feColorMatrix values="0 0 0 0 0   0 0 0 0 0   0 0 0 0 0  0 0 0 0.5 0" type="matrix" in="shadowBlurOuter1"></feColorMatrix>
        </filter>
        <linearGradient x1="87.8469423%" y1="85.4628906%" x2="51.6334673%" y2="47.8985546%" id="linearGradient-5">
            <stop stop-color="#454545" offset="0%"></stop>
            <stop stop-color="#555555" offset="100%"></stop>
        </linearGradient>
    </defs>
    <g id="Page-1" stroke="none" stroke-width="1" fill="none" fill-rule="evenodd">
        <g id="Artboard-13" transform="translate(-3362.000000, -1238.000000)">
            <g id="Shaders" filter="url(#filter-1)" transform="translate(3370.000000, 1244.000000)">
                <g id="Rectangle">
                    <use fill="black" fill-opacity="1" filter="url(#filter-4)" xlink:href="#path-3"></use>
                    <use fill-opacity="0.2" fill="url(#radialGradient-2)" fill-rule="evenodd" xlink:href="#path-3"></use>
                </g>
                <text id="MQTT,-Console" font-family="AvenirNext-Regular, Avenir Next" font-size="80" font-weight="normal" fill="#FFFFFF">
                    <tspan x="139" y="106">MQTT, Console</tspan>
                </text>
                <polygon id="Rectangle-24" fill="url(#linearGradient-5)" opacity="0.176347373" style="mix-blend-mode: lighten;" points="841 481 841 841 481 841"></polygon>
                <path d="M769.235294,745.764706 L799,745.764706 C800.104569,745.764706 801,746.660136 801,747.764706 L801,764.235294 C801,765.339864 800.104569,766.235294 799,766.235294 L769.235294,766.235294 L769.235294,796 C769.235294,797.104569 768.339864,798 767.235294,798 L750.764706,798 C749.660136,798 748.764706,797.104569 748.764706,796 L748.764706,766.235294 L719,766.235294 C717.895431,766.235294 717,765.339864 717,764.235294 L717,747.764706 C717,746.660136 717.895431,745.764706 719,745.764706 L748.764706,745.764706 L748.764706,716 C748.764706,714.895431 749.660136,714 750.764706,714 L767.235294,714 C768.339864,714 769.235294,714.895431 769.235294,716 L769.235294,745.764706 Z" id="Combined-Shape" fill="#FFFFFF"></path>
                <g id="wifi" transform="translate(195.000000, 262.000000)" fill="#FFFFFF" fill-rule="nonzero">
                    <path d="M270.959625,272.572088 C270.959625,297.661072 250.606339,318 225.499645,318 C200.39295,318 180.039665,297.661072 180.039665,272.572088 C180.039665,247.483104 200.39295,227.144176 225.499645,227.144176 C250.606339,227.144176 270.959625,247.483104 270.959625,272.572088 Z M368.030178,184.241062 C372.622346,179.652133 372.466077,172.128135 367.629562,167.796867 C286.801007,95.4067792 164.106652,95.4891173 83.3697282,167.796867 C78.5332125,172.128135 78.3769438,179.652133 82.9691121,184.241062 L107.123988,208.378899 C111.334009,212.585949 118.108256,212.864905 122.586774,208.943908 C181.457448,157.405232 269.67396,157.520222 328.412515,208.943908 C332.891034,212.864905 339.665281,212.586659 343.875301,208.378899 L368.030178,184.241062 Z M447.663277,103.52276 C452.19862,98.9906156 452.105569,91.5865757 447.414667,87.2162686 C322.564515,-29.0933829 128.389314,-29.0507942 3.58533261,87.2162686 C-1.10556906,91.5865757 -1.19861996,98.9913254 3.33672335,103.52276 L27.463187,127.632204 C31.7925398,131.958503 38.750758,132.055038 43.249165,127.904062 C146.076088,33.0250282 304.89692,33.0008946 407.750125,127.904062 C412.248532,132.055038 419.20675,131.958503 423.536103,127.632204 L447.663277,103.52276 Z" id="Shape"></path>
                </g>
            </g>
        </g>
    </g>
</svg>